<svg height="512" viewBox="0 0 512 512" width="512" xmlns="http://www.w3.org/2000/svg">
    <g fill="currentColor">
        <path d="M96 32c-8.837 0-16 7.163-16 16v416c0 8.837 7.163 16 16 16h320c8.837 0 16-7.163 16-16V48c0-8.837-7.163-16-16-16H96zm16 32h288v384H112V64zm32 32v48h48V96h-48zm80 0v48h48V96h-48zm80 0v48h48V96h-48zM144 176v48h48v-48h-48zm80 0v48h48v-48h-48zm80 0v48h48v-48h-48zM144 256v48h48v-48h-48zm80 0v48h48v-48h-48zm80 0v48h48v-48h-48zM144 336v48h48v-48h-48zm80 0v48h48v-48h-48zm80 0v48h48v-48h-48zM208 416v48h96v-48h-96z"/>
    </g>
</svg>
