<svg xmlns="http://www.w3.org/2000/svg" viewBox="0 0 128 128" role="img" aria-label="NexoWatt EOS">
  <defs>
    <radialGradient id="g" cx="35%" cy="30%" r="78%">
      <stop offset="0" stop-color="#00ff88" stop-opacity="1"/>
      <stop offset="0.52" stop-color="#00d4ff" stop-opacity="0.58"/>
      <stop offset="1" stop-color="#020914" stop-opacity="1"/>
    </radialGradient>
    <filter id="glow" x="-50%" y="-50%" width="200%" height="200%">
      <feGaussianBlur stdDeviation="3.5" result="b"/>
      <feMerge><feMergeNode in="b"/><feMergeNode in="SourceGraphic"/></feMerge>
    </filter>
  </defs>
  <rect width="128" height="128" rx="30" fill="#020914"/>
  <circle cx="64" cy="64" r="48" fill="url(#g)" opacity="0.9" filter="url(#glow)"/>
  <path d="M38 72c13-26 39-26 52 0" fill="none" stroke="#e8f7ff" stroke-width="7" stroke-linecap="round" opacity="0.95"/>
  <path d="M33 61h62M43 43v47M64 35v58M85 43v47" stroke="#020914" stroke-width="5" stroke-linecap="round" opacity="0.82"/>
  <path d="M64 19v17M64 92v17M19 64h17M92 64h17M32 32l12 12M84 84l12 12M96 32L84 44M44 84L32 96" stroke="#00ff88" stroke-width="5" stroke-linecap="round" opacity="0.95"/>
  <circle cx="64" cy="64" r="10" fill="#ffd21f" stroke="#020914" stroke-width="4"/>
</svg>