<?xml version="1.0" standalone="no"?>
<!DOCTYPE svg PUBLIC "-//W3C//DTD SVG 20010904//EN"
        "http://www.w3.org/TR/2001/REC-SVG-20010904/DTD/svg10.dtd">
<svg version="1.0" xmlns="http://www.w3.org/2000/svg"
     width="1024.000000pt" height="1024.000000pt" viewBox="0 0 1024.000000 1024.000000"
     preserveAspectRatio="xMidYMid meet">

    <g transform="translate(0.000000,1024.000000) scale(0.100000,-0.100000)"
       fill="#000000" stroke="none">
        <path d="M1626 8658 c-49 -13 -112 -75 -125 -125 -8 -26 -11 -1056 -11 -3373
l0 -3336 23 -44 c12 -24 39 -58 60 -74 l39 -31 1104 -3 c1217 -3 1154 -6 1194
60 19 32 20 49 20 586 l0 552 28 -6 c218 -48 348 -114 492 -250 88 -84 147
-164 199 -275 65 -135 91 -270 91 -473 0 -81 4 -104 20 -131 43 -70 -116 -65
1962 -65 1800 0 1875 1 1913 19 48 22 79 54 100 103 13 34 15 385 15 3375 0
3207 -1 3340 -19 3378 -23 51 -79 101 -128 114 -52 15 -6922 13 -6977 -1z
m3324 -1633 l0 -1305 -169 0 c-158 0 -170 -1 -202 -23 -53 -35 -71 -79 -67
-164 4 -82 23 -117 79 -145 31 -16 79 -18 569 -18 596 0 580 -2 627 69 23 34
23 37 23 388 l0 355 33 -7 c54 -12 169 -70 235 -119 150 -111 242 -313 242
-531 0 -64 3 -77 26 -104 28 -33 76 -51 142 -51 l42 0 0 -198 0 -197 -92 -22
c-387 -93 -642 -401 -698 -844 -14 -113 -2 -156 52 -189 31 -19 50 -20 386
-20 l352 0 0 -375 0 -375 -99 0 c-207 0 -340 -47 -454 -161 -192 -191 -193
-485 -3 -675 113 -113 227 -154 428 -154 l128 0 0 -70 0 -70 -775 0 -774 0 -6
38 c-21 132 -31 176 -58 252 -124 356 -389 624 -734 744 -167 58 -385 90 -444
66 -60 -25 -59 -19 -59 -585 l0 -515 -920 0 -920 0 0 1675 0 1675 925 0 c1022
0 965 -4 1005 63 28 45 28 169 0 214 -40 67 17 63 -1005 63 l-925 0 0 1310 0
1310 1555 0 1555 0 0 -1305z m3450 0 l0 -1305 -935 0 c-898 0 -935 1 -935 18
0 58 -77 232 -145 327 -140 196 -343 316 -632 371 -88 17 -91 17 -124 -2 -58
-34 -59 -38 -59 -391 l0 -323 -140 0 -140 0 0 1305 0 1305 1555 0 1555 0 0
-1305z m0 -2480 l0 -825 -765 0 -765 0 0 168 c0 189 -9 221 -71 254 -31 17
-65 18 -422 18 l-387 0 6 28 c11 45 43 123 81 194 108 206 334 341 593 355
118 6 152 19 180 66 18 30 20 52 20 300 l0 267 765 0 765 0 0 -825z m0 -1845
l0 -680 -765 0 -765 0 0 143 c0 162 -11 197 -71 229 -30 16 -60 18 -261 18
-126 0 -250 5 -278 11 -64 14 -127 61 -157 118 -48 91 -18 236 61 296 65 50
100 55 360 55 352 0 346 -5 346 298 l0 192 765 0 765 0 0 -680z"/>
    </g>
</svg>