<svg width="1024" height="1024" xmlns="http://www.w3.org/2000/svg">
    <path d="m476,4l57,0l14,1l2,2l7,29l11,44l1,5l10,1l29,6l30,8l21,7l4,0l2,-4l8,-8l7,-8l9,-9l7,-8l12,-13l8,-9l5,1l25,12l21,12l19,12l16,11l12,9l1,4l-13,42l-10,31l3,5l26,26l7,8l9,10l13,17l3,5l8,-1l64,-16l11,-2l20,34l10,19l14,31l6,15l-1,5l-16,13l-14,11l-17,14l-14,11l1,7l6,27l5,31l3,30l31,10l39,12l9,4l1,4l-4,58l-4,32l-4,18l-2,2l-63,8l-20,2l-3,14l-8,24l-11,26l-10,20l0,5l13,16l11,14l13,16l11,14l2,5l-12,18l-14,19l-8,10l-12,14l-7,8l-8,9l-2,0l-2,4l-7,6l-40,-20l-19,-10l-14,-7l-4,2l-12,11l-19,14l-19,12l-14,8l-9,4l3,39l4,46l-5,3l-20,9l-30,11l-36,11l-16,4l-6,-8l-16,-28l-14,-24l-6,-11l0,-2l-24,3l-24,2l-37,0l-11,-1l-8,16l-14,30l-15,30l-27,-5l-31,-7l-31,-9l-21,-8l-1,-1l0,-39l1,-43l-16,-8l-25,-13l-21,-14l-15,-11l-5,1l-26,15l-22,13l-21,12l-4,-1l-12,-13l-24,-24l-7,-8l-11,-12l-9,-11l-9,-10l0,-2l-2,0l-1,-5l29,-43l17,-26l-2,-5l-12,-18l-9,-16l-11,-23l-7,-20l0,-2l-67,0l-17,-1l-3,-8l-8,-36l-6,-35l-4,-32l1,-5l76,-30l1,-35l3,-31l4,-26l-1,-5l-18,-12l-16,-11l-23,-16l-8,-6l2,-9l10,-29l11,-27l12,-26l8,-14l12,1l65,12l6,0l11,-18l12,-16l8,-10l9,-10l7,-8l9,-9l1,-5l-28,-64l-3,-6l1,-4l13,-12l11,-9l18,-14l24,-16l21,-13l4,-3l4,1l10,9l13,12l15,14l12,11l9,8l6,-1l24,-10l22,-7l25,-6l12,-2l3,-13l11,-68l2,-3l11,-2l32,-3zm93,268l0,481l7,-1l24,-8l18,-8l17,-9l18,-12l13,-10l10,-9l12,-11l9,-10l11,-14l11,-16l9,-15l11,-24l9,-27l5,-22l3,-19l1,-13l0,-23l-2,-22l-4,-23l-7,-25l-8,-21l-11,-22l-10,-16l-10,-14l-11,-13l-9,-10l-8,-8l-11,-9l-13,-10l-19,-12l-15,-8l-19,-8l-21,-7l-10,-2zm-125,0l-27,9l-22,10l-14,8l-15,10l-12,9l-15,13l-19,19l-11,14l-12,18l-9,16l-9,19l-9,27l-5,22l-3,21l-1,16l0,21l3,27l5,24l5,16l8,21l10,21l12,19l14,19l14,15l15,15l14,11l10,7l21,13l21,10l19,7l12,4l2,0l0,-481l-2,0z" fill="#BBBCBC" />
    <path d="m411.3633,106.09091l2.17928,-0.41564l-0.17928,115.41564l-35,14l-22,11l-20,12l-15,11l-13,10l-24,22l-7,8l-10,11l-8,11l-13,19l-12,21l-11,23l-9,25l-7,26l-4,21l-2,16l-1,20l0,15l2,31l4,24l8,30l9,25l14,29l13,21l9,13l11,14l12,13l7,8l8,8l11,9l16,13l23,15l22,12l23,10l30,10l28,6l31,4l12,1l18,0l34,-3l28,-5l25,-7l22,-8l20,-9l23,-13l19,-13l13,-10l11,-10l8,-7l15,-15l1,-2l2,0l2,-4l10,-12l8,-11l10,-15l12,-21l9,-19l10,-27l7,-26l4,-22l2,-16l1,-14l0,-27l-3,-30l-3,-17l-6,-24l-8,-24l-10,-23l-11,-21l-11,-17l-10,-14l-12,-14l-9,-10l-5,-6l-8,-7l-13,-12l-12,-9l-14,-10l-20,-12l-21,-11l-20,-8l-16,-6l-1,-1l-0.17527,-115.06223l10.17527,2.06223l30,9l29,11l29,14l18,10l19,12l20,14l10,8l16,13l15,15l4,3l0,2l2,0l7,8l13,14l11,14l11,15l10,15l9,15l9,16l8,16l11,25l10,28l6,21l5,22l4,24l3,29l0,56l-2,23l-5,32l-5,22l-8,28l-10,27l-8,19l-10,19l-10,18l-13,20l-10,14l-10,13l-13,15l-9,10l-24,24l-11,9l-13,11l-18,13l-14,9l-15,9l-16,9l-26,12l-29,11l-30,9l-29,6l-28,4l-29,2l-37,0l-31,-3l-30,-5l-25,-6l-26,-8l-25,-10l-24,-11l-20,-11l-23,-14l-18,-13l-14,-11l-10,-9l-8,-7l-16,-15l-1,-3l-2,0l-7,-8l-10,-11l-11,-14l-10,-13l-14,-21l-10,-17l-15,-29l-10,-24l-8,-23l-8,-28l-5,-23l-5,-36l-2,-25l0,-30l2,-28l4,-30l5,-25l7,-26l10,-29l12,-28l10,-20l10,-17l13,-20l8,-11l9,-12l9,-11l12,-13l7,-8l11,-11l8,-7l11,-10l10,-8l19,-14l15,-10l15,-9l22,-12l26,-12l30,-11l29,-8l4,-1z" fill="#154578" />
    <path d="m496,239.53097l17,0l29,3l23,4l3.53571,1.07301c0.1107,6.65474 0.22139,14.05949 0.33208,20.71423l0.13221,11.21276l0,484l0,8.25l-6,1.75l-16,3l-17,2l-15,1l-18,0l-24,-2l-20,-4l-7.25,-2.25l-0.5,-2l-0.25,-14.75l1.17699,-505.88495l6.82301,-2.11505l23,-5l20,-2z" fill="#3399CA" />
    <path d="m483.41176,96.41176l43,0l34,3l7.53097,1.46903l-0.70796,114.30088l-8.82301,-1.76991l-20,-3l-20.47059,-2l-25.52941,0l-29,3l-8,1l-9.88496,1.59292l-0.11504,-4.59292l0,-67l0.28255,-40.87705l5.71745,-1.12295l20,-3l12,-1z" fill="#3399CB" />
</svg>
