<svg viewBox="0 0 57 57" xmlns="http://www.w3.org/2000/svg">
    <path d="M33.0562 0H24.2249L22.4179 8.406H34.8854M36 43.4545H21.9999L24.2249 57H33.0562" fill="#BBBCBC"/>
    <path d="M51.376 11.376L45.3746 5.37458L34.6618 12.4923L44.0652 23.148M22.6982 43.8935L12.4031 33.5969L5.06949 45.6797L11.071 51.6811" fill="#BBBCBC"/>
    <path d="M57 32.2V23.8L43.8446 21L43.0399 35M12.9983 35V21L0 23.8V32.2" fill="#BBBCBC"/>
    <path d="M46.1812 51.8188L52.1317 45.8683L44.1074 34.1074L39.4647 40.7696L33.9348 43.7338M13.5426 22.9853L22.4939 13.0783L11.8266 5.56323L5.87614 11.5137" fill="#BBBCBC"/>
    <path d="M28.5 7C22.7978 7 17.3292 9.26517 13.2972 13.2972C9.26517 17.3292 7 22.7978 7 28.5C7 34.2022 9.26517 39.6708 13.2972 43.7028C17.3292 47.7348 22.7978 50 28.5 50C34.2022 50 39.6708 47.7348 43.7028 43.7028C47.7348 39.6708 50 34.2022 50 28.5C50 22.7978 47.7348 17.3292 43.7028 13.2972C39.6708 9.26517 34.2022 7 28.5 7V14.147C31.161 14.147 36.2171 15.7171 38 17.5C39.8816 19.3816 46.1959 24.4346 46.1959 27.0956C46.1959 29.7566 42.8131 38.3064 40.9315 40.188C39.0499 42.0696 32.4685 45.0862 29.8075 45.0862C27.1465 45.0862 17.8185 42.9394 15.9369 41.0578C14.0553 39.1762 13 30.161 13 27.5C13 24.839 16.1184 19.3816 18 17.5C19.9093 16.2464 26.082 13.9664 28.5 14.147" fill="#BBBCBC"/>
    <path d="M33.4983 9.64819V15.1384C39.0143 17.1473 42.9612 22.3814 42.9612 28.5039C42.9612 36.3551 36.4747 42.7418 28.5081 42.7418C20.5415 42.7418 14.055 36.3551 14.055 28.5039C14.055 22.3814 18.0019 17.1473 23.5178 15.1384V9.64819C15.1549 11.8491 9 19.4522 9 28.4959C9 39.2683 17.7269 47.9999 28.5 47.9999C39.2731 47.9999 48 39.2683 48 28.4959C48 19.4522 41.8451 11.8491 33.4983 9.64819Z" fill="#164477"/>
    <path d="M28.5004 14.2582C29.5033 14.2582 30.4819 14.3622 31.4363 14.5543V9.21609C30.4819 9.07203 29.5033 9 28.5004 9C27.4975 9 26.5269 9.07203 25.5645 9.21609V14.5543C26.5188 14.3622 27.4975 14.2582 28.5004 14.2582Z" fill="#3399CC"/>
    <path d="M28.4996 16.395C27.4886 16.395 26.51 16.5151 25.5718 16.7472V40.0367C26.51 40.2688 27.4967 40.3889 28.4996 40.3889C29.5106 40.3889 30.4892 40.2688 31.4355 40.0367V16.7472C30.4973 16.5231 29.5106 16.395 28.4996 16.395Z" fill="#3399CC"/>
</svg>
