<svg height="486pt" viewBox="0 130 486.70625 486" width="486pt" xmlns="http://www.w3.org/2000/svg">
    <path fill="currentColor" d="m357.636719 244.210938c-1.90625-41.328126-25.761719-76.921876-60.195313-95.363282-2.714844-1.480468-5.515625-2.839844-8.371094-4.074218-13.941406-6.0625-29.328124-9.425782-45.503906-9.425782-60.75 0-110.351562 47.453125-113.910156 107.328125l.03125-.007812v.203125c0 2.210937-.105469 12.097656-.105469 12.097656l-1.699219 3.773438h11.371094c4.273438-14 17.390625-23.570313 32.871094-23.570313 18.945312 0 34.359375 15.828125 34.359375 34.773437 0 18.941407-15.414063 34.050782-34.359375 34.050782-18.136719 0-33.03125-14.253906-34.265625-32.253906h-13.570313c-.289062 0-.5625.460937-.839843.421874l-14.273438 39.867188c-2.003906 5.558594 2.113281 11.710938 8.019531 11.710938h12.292969l-.09375 63.484374c0 12.535157 10.164063 22.515626 22.699219 22.515626h40.59375v59.691406c0 9.300781 9.34375 16.308594 18.644531 16.308594h104.433594c9.300781 0 16.921875-7.007813 16.921875-16.308594v-119.917969c0-16.355469 4.316406-32.328125 11.960938-46.792969 7.984374-15.113281 12.65625-32.226562 13.09375-50.40625.019531-.910156.027343-1.84375.027343-2.777344 0-1.78125-.050781-3.566406-.132812-5.328124zm-112.230469-8.472657h-9.71875v9.792969c0 3.417969-3.082031 6.1875-6.5 6.1875-3.414062 0-6.5-2.769531-6.5-6.1875v-9.792969h-8.800781c-3.417969 0-6.1875-3.082031-6.1875-6.5 0-3.414062 2.769531-6.5 6.1875-6.5h8.800781v-8.722656c0-3.417969 3.085938-6.1875 6.5-6.1875 3.417969 0 6.5 2.769531 6.5 6.1875v8.722656h9.71875c3.414062 0 6.1875 3.085938 6.1875 6.5 0 3.417969-2.773438 6.5-6.1875 6.5zm0 0"/>
    <path fill="currentColor" d="m187.695312 285.875c3.9375-3.980469 6.414063-9.449219 6.414063-15.523438 0-12.128906-9.855469-21.980468-21.984375-21.980468-6.007812 0-11.472656 2.410156-15.457031 6.347656-4.023438 4.003906-6.523438 9.539062-6.523438 15.636719 0 12.125 9.855469 21.980469 21.980469 21.980469 6.078125 0 11.585938-2.476563 15.570312-6.460938zm0 0"/>
</svg>