<svg height="512" viewBox="0 0 512 512" width="512" xmlns="http://www.w3.org/2000/svg">
    <g fill="currentColor">
        <path d="m475.448 146.46.001-.001-.033-.022c-.019-.013-.038-.026-.057-.039l-210.91-143.792c-5.096-3.475-11.803-3.475-16.898 0l-210.911 143.791c-.019.013-.038.026-.057.039l-.033.022.001.001c-3.954 2.702-6.551 7.243-6.551 12.393v338.148c0 8.284 6.716 15 15 15h52.531c7.662 0 14.092-5.774 14.913-13.392l28.556-264.756h230l28.556 264.756c.821 7.617 7.251 13.392 14.913 13.392h52.531c8.284 0 15-6.716 15-15v-338.148c0-5.15-2.598-9.691-6.552-12.392zm-415.448 57.392v-30h392v30zm196-170.698 162.37 110.698h-324.741zm-171.938 448.846h-24.062v-248.148h50.826zm367.938 0h-24.063l-26.764-248.147h50.827z"/>
    </g>
</svg>