<svg height="512" viewBox="0 0 512 512" width="512" xmlns="http://www.w3.org/2000/svg">
    <g fill="currentColor">
        <path d="m112.064 94.752h-22.589c-4.151 0-7.515 3.364-7.515 7.515s3.364 7.515 7.515 7.515h22.589c4.151 0 7.515-3.365 7.515-7.515s-3.365-7.515-7.515-7.515z"/>
        <path d="m228.673 82.614c4.151 0 7.515-3.365 7.515-7.515s-3.364-7.515-7.515-7.515h-8.06v-8.802c0-12.431-10.113-22.544-22.544-22.544h-127.181c-12.431 0-22.544 10.113-22.544 22.544v86.971c0 12.431 10.114 22.544 22.544 22.544h127.182c12.43 0 22.544-10.113 22.544-22.544v-8.802h8.06c4.151 0 7.515-3.365 7.515-7.515s-3.364-7.515-7.515-7.515h-8.06v-39.307zm-23.089 63.138c0 4.144-3.371 7.515-7.515 7.515h-127.181c-4.144 0-7.515-3.371-7.515-7.515v-86.97c0-4.144 3.371-7.515 7.515-7.515h127.182c4.144 0 7.515 3.371 7.515 7.515v86.97z"/>
        <path d="m89.475 248.485c-4.151 0-7.515 3.364-7.515 7.515s3.364 7.515 7.515 7.515h22.589c4.151 0 7.515-3.365 7.515-7.515s-3.364-7.515-7.515-7.515z"/>
        <path d="m228.673 236.346c4.151 0 7.515-3.365 7.515-7.515s-3.364-7.515-7.515-7.515h-8.06v-8.802c0-12.431-10.113-22.544-22.544-22.544h-127.181c-12.431 0-22.544 10.113-22.544 22.544v86.971c0 12.431 10.114 22.544 22.544 22.544h68.975c4.151 0 7.515-3.365 7.515-7.515s-3.364-7.515-7.515-7.515h-68.975c-4.144 0-7.515-3.371-7.515-7.515v-86.971c0-4.144 3.371-7.515 7.515-7.515h127.182c4.144 0 7.515 3.371 7.515 7.515v86.971c0 4.144-3.371 7.515-7.515 7.515h-28.148c-4.151 0-7.515 3.365-7.515 7.515s3.364 7.515 7.515 7.515h28.148c12.43 0 22.544-10.113 22.544-22.544v-8.802h8.06c4.151 0 7.515-3.365 7.515-7.515s-3.364-7.515-7.515-7.515h-8.06v-39.307z"/>
        <path d="m112.064 402.218h-22.589c-4.151 0-7.515 3.365-7.515 7.515s3.364 7.515 7.515 7.515h22.589c4.151 0 7.515-3.365 7.515-7.515-.001-4.15-3.365-7.515-7.515-7.515z"/>
        <path d="m228.673 390.079c4.151 0 7.515-3.365 7.515-7.515s-3.364-7.515-7.515-7.515h-8.06v-8.802c0-12.431-10.113-22.544-22.544-22.544h-127.181c-12.431 0-22.544 10.113-22.544 22.544v86.971c0 12.431 10.114 22.544 22.544 22.544h127.182c12.43 0 22.544-10.113 22.544-22.544v-8.802h8.06c4.151 0 7.515-3.365 7.515-7.515s-3.364-7.515-7.515-7.515h-8.06v-39.307zm-23.089 63.139c0 4.144-3.371 7.515-7.515 7.515h-127.181c-4.144 0-7.515-3.371-7.515-7.515v-86.971c0-4.144 3.371-7.515 7.515-7.515h127.182c4.144 0 7.515 3.371 7.515 7.515v86.971z"/>
        <path d="m387.432 43.752c0-4.15-3.364-7.515-7.515-7.515h-73.742c-12.43 0-22.544 10.113-22.544 22.544v86.971c0 12.431 10.113 22.544 22.544 22.544h127.181c12.431 0 22.544-10.113 22.544-22.544v-8.802h8.06c4.151 0 7.515-3.365 7.515-7.515s-3.364-7.515-7.515-7.515h-8.06v-39.306h8.06c4.151 0 7.515-3.365 7.515-7.515s-3.364-7.515-7.515-7.515h-8.06v-8.802c0-12.431-10.114-22.544-22.544-22.544h-23.381c-4.151 0-7.515 3.364-7.515 7.515 0 4.15 3.364 7.515 7.515 7.515h23.381c4.144 0 7.515 3.371 7.515 7.515v86.971c0 4.144-3.371 7.515-7.515 7.515h-127.18c-4.144 0-7.515-3.371-7.515-7.515v-86.972c0-4.144 3.371-7.515 7.515-7.515h73.742c4.151 0 7.514-3.364 7.514-7.515z"/>
        <path d="m324.761 94.752c-4.151 0-7.515 3.364-7.515 7.515s3.364 7.515 7.515 7.515h22.59c4.151 0 7.515-3.365 7.515-7.515s-3.364-7.515-7.515-7.515z"/>
        <path d="m283.632 299.485c0 12.431 10.113 22.544 22.544 22.544h127.181c12.431 0 22.544-10.113 22.544-22.544v-8.802h8.06c4.151 0 7.515-3.365 7.515-7.515s-3.364-7.515-7.515-7.515h-8.06v-39.307h8.06c4.151 0 7.515-3.365 7.515-7.515s-3.364-7.515-7.515-7.515h-8.06v-8.802c0-12.431-10.114-22.544-22.544-22.544h-127.181c-12.43 0-22.544 10.113-22.544 22.544zm15.029-86.97c0-4.144 3.371-7.515 7.515-7.515h127.181c4.144 0 7.515 3.371 7.515 7.515v86.971c0 4.144-3.371 7.515-7.515 7.515h-127.181c-4.144 0-7.515-3.371-7.515-7.515z"/>
        <path d="m324.761 263.515h22.59c4.151 0 7.515-3.365 7.515-7.515s-3.364-7.515-7.515-7.515h-22.59c-4.151 0-7.515 3.364-7.515 7.515s3.365 7.515 7.515 7.515z"/>
        <path d="m283.632 453.218c0 12.431 10.113 22.544 22.544 22.544h127.181c12.431 0 22.544-10.113 22.544-22.544v-8.802h8.06c4.151 0 7.515-3.365 7.515-7.515s-3.364-7.515-7.515-7.515h-8.06v-39.307h8.06c4.151 0 7.515-3.365 7.515-7.515s-3.364-7.515-7.515-7.515h-8.06v-8.802c0-12.431-10.114-22.544-22.544-22.544h-127.181c-12.43 0-22.544 10.113-22.544 22.544zm15.029-86.97c0-4.144 3.371-7.515 7.515-7.515h127.181c4.144 0 7.515 3.371 7.515 7.515v86.971c0 4.144-3.371 7.515-7.515 7.515h-127.181c-4.144 0-7.515-3.371-7.515-7.515z"/>
        <path d="m324.761 417.248h22.59c4.151 0 7.515-3.365 7.515-7.515s-3.364-7.515-7.515-7.515h-22.59c-4.151 0-7.515 3.365-7.515 7.515.001 4.15 3.365 7.515 7.515 7.515z"/>
        <path d="m489.456 0h-466.912c-12.431 0-22.544 10.113-22.544 22.544v466.912c0 12.431 10.113 22.544 22.544 22.544h298.482c4.151 0 7.515-3.365 7.515-7.515s-3.364-7.515-7.515-7.515h-298.482c-4.144 0-7.515-3.371-7.515-7.515v-466.911c0-4.144 3.371-7.515 7.515-7.515h466.912c4.144 0 7.515 3.371 7.515 7.515v466.912c0 4.144-3.371 7.515-7.515 7.515h-138.371c-4.151 0-7.515 3.365-7.515 7.515s3.364 7.515 7.515 7.515h138.371c12.431-.001 22.544-10.114 22.544-22.545v-466.912c0-12.431-10.113-22.544-22.544-22.544z"/>
    </g>
</svg>