<svg height="512" viewBox="0 0 512 512" width="512" xmlns="http://www.w3.org/2000/svg">
    <g fill="currentColor">
        <path d="m173.431 373.169c-10.297 0-18.674 8.377-18.674 18.675v14.165c0 10.297 8.378 18.675 18.675 18.675s18.674-8.377 18.674-18.675v-14.165c-.001-10.298-8.378-18.675-18.675-18.675zm3.674 32.839c0 2.026-1.648 3.675-3.674 3.675h-.001c-2.025 0-3.674-1.648-3.674-3.675v-14.165c0-2.026 1.648-3.675 3.675-3.675 2.025 0 3.674 1.648 3.674 3.675z"/>
        <path d="m338.568 373.169c-10.297 0-18.675 8.377-18.675 18.675v14.165c0 10.297 8.378 18.675 18.675 18.675s18.675-8.377 18.675-18.675v-14.165c0-10.298-8.378-18.675-18.675-18.675zm3.675 32.839c0 2.026-1.648 3.675-3.675 3.675s-3.675-1.648-3.675-3.675v-14.165c0-2.026 1.648-3.675 3.675-3.675s3.675 1.648 3.675 3.675z"/>
        <path d="m299.916 385.707h-87.833c-4.143 0-7.5 3.358-7.5 7.5s3.357 7.5 7.5 7.5h87.833c4.143 0 7.5-3.358 7.5-7.5s-3.357-7.5-7.5-7.5z"/>
        <path d="m299.916 403.767h-87.833c-4.143 0-7.5 3.358-7.5 7.5s3.357 7.5 7.5 7.5h87.833c4.143 0 7.5-3.358 7.5-7.5s-3.357-7.5-7.5-7.5z"/>
        <path d="m173.432 153.773c10.297 0 18.674-8.377 18.674-18.675v-11.842c0-10.297-8.378-18.675-18.675-18.675s-18.674 8.377-18.674 18.675v11.842c0 10.298 8.378 18.675 18.675 18.675zm-3.675-30.517c0-2.026 1.648-3.675 3.675-3.675 2.025 0 3.674 1.648 3.674 3.675v11.842c0 2.026-1.648 3.675-3.674 3.675h-.001c-2.025 0-3.674-1.648-3.674-3.675z"/>
        <path d="m338.568 153.773c10.297 0 18.675-8.377 18.675-18.675v-11.842c0-10.297-8.378-18.675-18.675-18.675s-18.675 8.377-18.675 18.675v11.842c.001 10.298 8.378 18.675 18.675 18.675zm-3.674-30.517c0-2.026 1.648-3.675 3.675-3.675s3.675 1.648 3.675 3.675v11.842c0 2.026-1.648 3.675-3.675 3.675s-3.675-1.648-3.675-3.675z"/>
        <path d="m212.083 132.119h87.833c4.143 0 7.5-3.358 7.5-7.5s-3.357-7.5-7.5-7.5h-87.833c-4.143 0-7.5 3.358-7.5 7.5s3.357 7.5 7.5 7.5z"/>
        <path d="m212.083 150.179h87.833c4.143 0 7.5-3.358 7.5-7.5s-3.357-7.5-7.5-7.5h-87.833c-4.143 0-7.5 3.358-7.5 7.5s3.357 7.5 7.5 7.5z"/>
        <path d="m458.85 0h-38.574c-4.143 0-7.5 3.358-7.5 7.5v220.912h-57.787c1.736-3.541 2.714-7.518 2.714-11.72v-11.72h4.129c12.512 0 22.69-10.179 22.69-22.691 0-6.792-3.004-12.892-7.748-17.054 5.039-7.656 7.75-16.613 7.75-25.99v-6.56c0-19.316-11.618-35.959-28.228-43.34l-.229-1.469h5.983c5.913 0 11.473-2.303 15.652-6.484 4.183-4.181 6.485-9.741 6.485-15.654 0-12.207-9.931-22.138-22.138-22.138h-12.87l-1.141-7.334c-3.271-21.008-21.077-36.258-42.338-36.258h-99.4c-21.261 0-39.066 15.25-42.339 36.261l-1.141 7.333h-12.872c-5.913 0-11.473 2.303-15.652 6.484-4.183 4.181-6.485 9.741-6.485 15.654 0 12.207 9.931 22.138 22.138 22.138h5.985l-.229 1.469c-16.607 7.38-28.223 24.023-28.223 43.339v6.56c0 9.376 2.71 18.332 7.748 25.987-4.746 4.162-7.752 10.263-7.752 17.057 0 12.512 10.18 22.691 22.691 22.691h2.117v11.72c0 4.202.978 8.179 2.714 11.72h-55.78v-220.913c0-4.142-3.357-7.5-7.5-7.5h-38.57c-4.143 0-7.5 3.358-7.5 7.5v141.51c0 4.142 3.357 7.5 7.5 7.5s7.5-3.358 7.5-7.5v-26.7l23.569 17.88v93.201l-23.569-17.88v-36.501c0-4.142-3.357-7.5-7.5-7.5s-7.5 3.358-7.5 7.5v325.49c0 4.142 3.357 7.5 7.5 7.5h405.7c4.143 0 7.5-3.358 7.5-7.5v-497c0-4.142-3.358-7.5-7.5-7.5zm-7.5 259.776-23.574 17.884v-25.437l23.574-17.884zm0-156.294-23.574 17.884v-25.437l23.574-17.884zm-23.575 36.712 23.574-17.884v93.201l-23.574 17.884zm0 156.295 23.574-17.884v93.201l-23.574 17.884zm0 112.029 23.574-17.884v25.437l-23.574 17.884zm23.575-393.518v44.217l-23.574 17.884v-62.101zm-108.648 201.692c0 6.462-5.258 11.72-11.72 11.72s-11.72-5.257-11.72-11.72v-11.72h23.439v11.72zm-136.976-11.719h98.537v11.72c0 4.202.978 8.179 2.714 11.72h-103.965c1.736-3.541 2.714-7.518 2.714-11.72zm156.324-146.379c3.936 0 7.138 3.202 7.138 7.138 0 1.906-.742 3.698-2.092 5.047-1.348 1.348-3.14 2.09-5.046 2.09h-8.316l-2.221-14.275zm-183.267-20.026c2.126-13.656 13.699-23.568 27.517-23.568h99.4c13.817 0 25.391 9.912 27.517 23.567l7.286 46.837c-1.12-.079-2.247-.134-3.387-.134h-14.976c-2.418-17.139-17.175-30.368-34.969-30.368-17.796 0-32.552 13.229-34.97 30.368h-77.317c-1.139 0-2.266.055-3.385.134zm128.074 46.702h-39.376c2.222-8.815 10.194-15.368 19.688-15.368s17.467 6.553 19.688 15.368zm-156.909-12.4c-3.936 0-7.138-3.202-7.138-7.138 0-1.906.742-3.698 2.092-5.047 1.348-1.348 3.14-2.09 5.046-2.09h10.539l-2.221 14.275zm-7.467 66.367v-6.56c0-17.87 14.535-32.408 32.401-32.408h162.232c17.87 0 32.408 14.538 32.408 32.408v6.56c0 7.505-2.537 14.616-7.199 20.366-.165-.003-.328-.012-.494-.012h-211.66c-.164 0-.326.009-.489.012-4.661-5.75-7.199-12.861-7.199-20.366zm-.003 43.045c0-4.241 3.45-7.69 7.691-7.69h211.662c4.24 0 7.69 3.45 7.69 7.69s-3.45 7.691-7.69 7.691h-211.662c-4.241 0-7.691-3.451-7.691-7.691zm24.808 34.41v-11.72h23.439v11.72c0 6.462-5.258 11.72-11.72 11.72s-11.719-5.257-11.719-11.72zm245.489 26.72v253.588h-57.787c1.736-3.541 2.714-7.518 2.714-11.72v-11.72h4.129c12.512 0 22.69-10.179 22.69-22.69 0-6.793-3.005-12.894-7.75-17.056 5.038-7.656 7.748-16.611 7.748-25.984v-5.35c0-4.142-3.357-7.5-7.5-7.5s-7.5 3.358-7.5 7.5v5.35c0 7.5-2.537 14.61-7.199 20.362-.163-.003-.326-.012-.49-.012h-211.661c-.164 0-.326.009-.49.012-4.661-5.752-7.199-12.862-7.199-20.362v-6.56c0-17.871 14.534-32.41 32.399-32.41h162.24c9.627 0 18.693 4.242 24.875 11.64 2.656 3.178 7.386 3.602 10.564.945 3.178-2.656 3.602-7.386.945-10.564-4.738-5.67-10.642-10.057-17.21-12.963l-.227-1.46h5.983c5.913 0 11.473-2.303 15.652-6.484 4.183-4.181 6.485-9.741 6.485-15.654 0-12.207-9.931-22.138-22.138-22.138h-12.87l-1.141-7.334c-3.272-21.01-21.078-36.26-42.339-36.26h-99.4c-21.261 0-39.066 15.25-42.339 36.261l-1.141 7.333h-12.872c-5.913 0-11.473 2.303-15.652 6.484-4.183 4.181-6.485 9.741-6.485 15.654 0 12.207 9.931 22.138 22.138 22.138h5.985l-.229 1.471c-16.607 7.38-28.224 24.025-28.224 43.342v6.56c0 9.373 2.71 18.327 7.748 25.983-4.746 4.162-7.751 10.263-7.751 17.056 0 12.512 10.18 22.69 22.691 22.69h2.117v11.72c0 4.202.978 8.179 2.714 11.72h-55.778v-253.588zm-245.489 241.868v-11.72h23.439v11.72c0 6.462-5.258 11.72-11.72 11.72s-11.719-5.257-11.719-11.72zm-17.117-42.101h211.662c4.24 0 7.69 3.45 7.69 7.69s-3.45 7.69-7.69 7.69h-211.662c-4.241 0-7.691-3.45-7.691-7.69s3.45-7.69 7.691-7.69zm55.557 42.101v-11.72h98.537v11.72c0 4.202.978 8.179 2.714 11.72h-103.965c1.736-3.541 2.714-7.518 2.714-11.72zm113.537 0v-11.72h23.439v11.72c0 6.462-5.258 11.72-11.72 11.72s-11.719-5.257-11.719-11.72zm32.25-158.098h10.536c3.936 0 7.138 3.202 7.138 7.138 0 1.906-.742 3.698-2.092 5.047-1.348 1.348-3.14 2.09-5.046 2.09h-8.316zm-29.373 26.678c-2.417-17.14-17.174-30.371-34.97-30.371-17.797 0-32.554 13.23-34.971 30.371h-77.319c-1.139 0-2.264.055-3.383.134l7.286-46.838c2.126-13.657 13.699-23.568 27.517-23.568h99.4c13.817 0 25.391 9.912 27.517 23.567l7.286 46.84c-1.122-.08-2.249-.135-3.383-.135zm-15.282 0h-39.377c2.221-8.816 10.193-15.371 19.689-15.371s17.467 6.555 19.688 15.371zm-148.592-12.402h-8.318c-3.936 0-7.138-3.202-7.138-7.138 0-1.906.742-3.698 2.092-5.047 1.348-1.348 3.14-2.09 5.046-2.09h10.539zm-97.616-62.854 23.569 17.88v93.201l-23.569-17.88zm0 112.03 23.569 17.881v25.437l-23.569-17.881zm23.57-375.634v62.097l-23.57-17.88v-44.217zm-23.57 88.482v-25.437l23.57 17.881v25.437zm23.57 148.738v25.437l-23.57-17.881v-25.437zm-23.57 244.78v-62.101l23.569 17.88v44.221zm367.125 0v-44.217l23.574-17.884v62.101z"/>
    </g>
</svg>