<?xml version="1.0" encoding="iso-8859-1"?>
<!-- Generator: Adobe Illustrator 19.0.0, SVG Export Plug-In . SVG Version: 6.00 Build 0)  -->
<svg version="1.1" id="Capa_1" xmlns="http://www.w3.org/2000/svg" xmlns:xlink="http://www.w3.org/1999/xlink" x="0px" y="0px"
	 viewBox="0 0 512 512" style="enable-background:new 0 0 512 512;" xml:space="preserve">
<g>
	<g>
		<path d="M509.364,174.312c-3.188-3.635-79.854-88.979-253.365-88.979S5.822,170.676,2.635,174.312
			c-2.354,2.688-3.198,6.375-2.26,9.823l64,234.667c0.938,3.427,3.521,6.146,6.885,7.281c3.323,1.156,7.073,0.521,9.896-1.615
			c0.531-0.406,54.593-40.469,174.843-40.469c12.009,0,23.174,0.491,33.875,1.211l-12.936,20.122h-4.845
			c-5.896,0-10.667,4.771-10.667,10.667s4.771,10.667,10.667,10.667h42.667c5.896,0,10.667-4.771,10.667-10.667
			s-4.771-10.667-10.667-10.667h-12.464l11.534-17.941c79.85,9.641,116.577,36.742,117.013,37.077
			c1.885,1.427,4.177,2.177,6.49,2.177c1.146,0,2.302-0.177,3.406-0.563c3.365-1.135,5.948-3.854,6.885-7.281l64-234.667
			C512.562,180.687,511.718,176.999,509.364,174.312z M430.812,399.364c-16.956-9.348-51.085-24.154-104.255-31.77l58.026-90.262
			h19.381l-20.402,74.823c-1.552,5.677,1.802,11.542,7.49,13.094c0.938,0.26,1.875,0.375,2.813,0.375
			c4.688,0,8.99-3.115,10.281-7.865l43.479-159.458c1.552-5.677-1.802-11.542-7.49-13.094c-5.615-1.563-11.542,1.792-13.094,7.49
			l-17.261,63.302h-31.021c-3.625,0-7.01,1.844-8.969,4.896l-66.887,104.046c-14.553-1.319-29.885-2.275-46.905-2.275
			c-95.229,0-151.271,23.719-174.813,36.698L22.562,184.426c17-16.313,90.552-77.76,233.438-77.76
			c142.281,0,216.313,61.479,233.427,77.792L430.812,399.364z"/>
	</g>
</g>
<g>
	<g>
		<path d="M100.77,171.791c-5.26-2.604-11.677-0.5-14.313,4.771l-21.333,42.667c-2.635,5.271-0.5,11.677,4.771,14.313
			c1.531,0.76,3.156,1.125,4.76,1.125c3.917,0,7.677-2.156,9.552-5.896l21.333-42.667
			C108.176,180.832,106.041,174.426,100.77,171.791z"/>
	</g>
</g>
<g>
	<g>
		<path d="M143.437,171.791c-5.26-2.604-11.677-0.5-14.313,4.771l-42.667,85.333c-2.635,5.271-0.5,11.677,4.771,14.313
			c1.531,0.76,3.156,1.125,4.76,1.125c3.917,0,7.677-2.156,9.552-5.896l42.667-85.333
			C150.843,180.832,148.707,174.426,143.437,171.791z"/>
	</g>
</g>
<g>
</g>
<g>
</g>
<g>
</g>
<g>
</g>
<g>
</g>
<g>
</g>
<g>
</g>
<g>
</g>
<g>
</g>
<g>
</g>
<g>
</g>
<g>
</g>
<g>
</g>
<g>
</g>
<g>
</g>
</svg>
