<svg id="Capa_1" enable-background="new 0 0 512 512" height="512" viewBox="0 0 512 512" width="512" xmlns="http://www.w3.org/2000/svg"><g><path d="m482 60v-15c0-24.813-20.187-45-45-45-11.517 0-22.032 4.354-30 11.495-7.968-7.141-18.483-11.495-30-11.495-24.813 0-45 20.187-45 45v15h-30v30h30v60h30v90h30v-90h30v90h30v-90h30v-60h30v-30zm-90 60h-30v-75c0-8.271 6.729-15 15-15s15 6.729 15 15zm60 0h-30v-75c0-8.271 6.729-15 15-15s15 6.729 15 15z"/><path d="m151 270h21.213l30-30h23.787c41.355 0 75-33.645 75-75v-45h-270v180h-31v90h31v122h90v-62h270v62h90v-122h31v-90h-361zm-90-120h210v15c0 24.813-20.187 45-45 45h-23.787l-25.607-25.607-21.213 21.213 19.394 19.394-15 15h-11.357c-6.19-17.461-22.873-30-42.43-30h-30c-5.257 0-10.307.906-15 2.57zm0 105c0-8.271 6.729-15 15-15h30c8.271 0 15 6.729 15 15v45h-60zm0 227v-92h30v92zm60-62v-30h270v30zm330 62h-30v-92h30zm31-122h-452v-30h452z"/></g></svg>