<svg enable-background="new 0 0 512 512" height="512" viewBox="0 0 512 512" width="512"
     xmlns="http://www.w3.org/2000/svg">
    <g fill="currentColor">
        <path d="m303.685 126.792c20.68-110.795 19.315-102.85 19.315-104.869 0-12.498-11.608-21.923-27-21.923h-80c-18.263 0-28.952 12.827-26.746 24.675l19.06 102.117c-88.015 21.711-151.314 100.757-151.314 193.208 0 8.284 6.716 15 15 15h82.096c7.284 49.71 50.204 88 101.904 88 51.699 0 94.619-38.29 101.904-88 .141 0 82.276 0 82.119 0 8.267-.013 14.964-6.71 14.977-14.977.14-91.37-62.395-171.297-151.315-193.231zm-65.934-5.792-16.985-91h70.467l-16.985 91zm152.231 96h-267.965c67.563-87.839 200.23-88.062 267.965 0zm-133.982 176c-35.113 0-64.515-24.918-71.451-58h142.902c-6.936 33.082-36.339 58-71.451 58zm-168.333-88c1.793-20.136 7.18-39.841 15.873-58h304.918c8.693 18.159 14.08 37.864 15.873 58-15.201 0-321.28 0-336.664 0z"/>
        <path d="m256 457c-8.284 0-15 6.716-15 15v25c0 8.284 6.716 15 15 15s15-6.716 15-15v-25c0-8.284-6.716-15-15-15z"/>
        <path d="m353.47 436.146c-3.076-7.691-11.802-11.434-19.498-8.355-7.691 3.077-11.433 11.807-8.355 19.498l8.914 22.283c2.346 5.865 7.979 9.433 13.932 9.433 10.541 0 17.876-10.691 13.922-20.575z"/>
        <path d="m178.027 427.79c-7.692-3.079-16.421.665-19.498 8.356l-8.913 22.283c-3.948 9.869 3.361 20.574 13.922 20.574 5.953 0 11.586-3.568 13.932-9.434l8.913-22.283c3.077-7.69-.664-16.42-8.356-19.496z"/>
    </g>
</svg>