<?xml version="1.0" encoding="iso-8859-1"?>
<svg version="1.1" id="Capa_1" xmlns="http://www.w3.org/2000/svg" xmlns:xlink="http://www.w3.org/1999/xlink" x="0px" y="0px"
	 viewBox="0 0 480 480" style="enable-background:new 0 0 480 480;" xml:space="preserve">
<g>
	<path fill="currentColor" d="M464,264c-4.286-98.483-85.424-176.093-184-176h-80c-98.576-0.093-179.714,77.517-184,176H0v80h48v48h64v-48h256v48h64
		v-48h48v-80H464z M200,104h80c89.747-0.102,163.726,70.354,168,160h-16v-24c0-22.091-17.909-40-40-40h-28.48
		c2.908-4.832,4.456-10.36,4.48-16c0-17.673-14.327-32-32-32H144c-17.673,0-32,14.327-32,32c0.024,5.64,1.572,11.168,4.48,16H88
		c-22.091,0-40,17.909-40,40v24H32C36.274,174.354,110.253,103.898,200,104z M392,216c13.255,0,24,10.745,24,24v24H64v-24
		c0-13.255,10.745-24,24-24H392z M128,184c0-8.837,7.163-16,16-16h192c8.837,0,16,7.163,16,16s-7.163,16-16,16H144
		C135.163,200,128,192.837,128,184z M96,376H64v-32h32V376z M416,376h-32v-32h32V376z M464,328H16v-48h448V328z"/>
</g>
</svg>
