<?xml version="1.0" encoding="iso-8859-1"?>
<svg version="1.1" id="Capa_1" xmlns="http://www.w3.org/2000/svg" xmlns:xlink="http://www.w3.org/1999/xlink" x="0px" y="0px"
	 viewBox="0 0 480 480" style="enable-background:new 0 0 480 480;" xml:space="preserve">
<g fill="currentColor">
	<path d="M0,208v48h16v224h448V256h16v-48H0z M208,464H32V256h176V464z M288,464h-64V320h64V464z M368,464h-64V320h64V464z
		 M448,464h-64V320h64V464z M448,304H224v-48h224V304z M464,240H16v-16h448V240z"/>
	<path d="M48,336v112h144V336H48z M176,432H64v-80h112V432z"/>
	<path d="M72,272c-13.255,0-24,10.745-24,24s10.745,24,24,24s24-10.745,24-24S85.255,272,72,272z M72,304c-4.418,0-8-3.582-8-8
			s3.582-8,8-8s8,3.582,8,8S76.418,304,72,304z"/>
	<path d="M168,272c-13.255,0-24,10.745-24,24s10.745,24,24,24s24-10.745,24-24S181.255,272,168,272z M168,304c-4.418,0-8-3.582-8-8
		s3.582-8,8-8s8,3.582,8,8S172.418,304,168,304z"/>
	<rect x="304" y="272" width="64" height="16"/>
	<rect x="256" y="336" width="16" height="16"/>
	<rect x="336" y="368" width="16" height="32"/>
	<rect x="400" y="368" width="16" height="32"/>
	<path d="M208,0v86.08l-24-48V0H40v38.08L0.88,116.4c-1.988,3.946-0.401,8.756,3.544,10.744C5.534,127.703,6.758,127.996,8,128h472
		V0H208z M56,16h112v16H56V16z M20.96,112l32-64h118.08l32,64H20.96z M336,112H224V16h112V112z M464,112H352V16h112V112z"/>
	<rect x="304" y="80" width="16" height="16"/>
	<rect x="368" y="80" width="16" height="16"/>
	<rect x="96" y="368" width="48" height="16"/>
</g>
</svg>
