<?xml version="1.0" encoding="iso-8859-1"?>
<svg version="1.1" id="Capa_1" xmlns="http://www.w3.org/2000/svg" xmlns:xlink="http://www.w3.org/1999/xlink" x="0px" y="0px"
	 viewBox="0 0 480.046 480.046" style="enable-background:new 0 0 480.046 480.046;" xml:space="preserve">
<g fill="currentColor">
	<path d="M328.034,320.046h-24v-88c0-4.418-3.582-8-8-8h-256c-4.418,0-8,3.582-8,8v88h-24c-4.418,0-8,3.582-8,8v128
		c0,4.418,3.582,8,8,8h24v16h16v-16h240v16h16v-16h24c4.418,0,8-3.582,8-8v-128C336.034,323.628,332.452,320.046,328.034,320.046z
		 M80.034,448.046h-64v-112h64V448.046z M240.034,448.046h-144v-64h144V448.046z M240.034,328.046v40h-144v-40c0-4.418-3.582-8-8-8
		h-40v-80h240v80h-40C243.615,320.046,240.034,323.628,240.034,328.046z M320.034,448.046h-64v-112h64V448.046z"/>
	<path d="M479.954,151.166l-16-144c-0.447-4.041-3.854-7.104-7.92-7.12h-112c-4.096-0.025-7.549,3.049-8,7.12l-16,144
		c-0.276,2.258,0.422,4.528,1.92,6.24c1.55,1.718,3.767,2.68,6.08,2.64h64v272h-32c-4.418,0-8,3.582-8,8v32c0,4.418,3.582,8,8,8h80
		c4.418,0,8-3.582,8-8v-32c0-4.418-3.582-8-8-8h-32v-272h64c2.285,0.017,4.469-0.943,6-2.64
		C479.532,155.694,480.23,153.425,479.954,151.166z M432.034,448.046v16h-64v-16H432.034z M336.994,144.046l14.24-128h97.6
		l14.24,128H336.994z"/>
	<path d="M272.034,48.046h-52.72l-45.6-45.68c-3.111-3.137-8.177-3.158-11.314-0.046c-0.016,0.015-0.031,0.031-0.046,0.046
		l-45.6,45.68h-52.72c-4.418,0-8,3.582-8,8v128c0,4.418,3.582,8,8,8h208c4.418,0,8-3.582,8-8v-128
		C280.034,51.628,276.452,48.046,272.034,48.046z M168.034,19.326l28.72,28.72h-57.44L168.034,19.326z M264.034,176.046h-192v-112
		h192V176.046z"/>
	<path d="M88.034,80.046v80h160v-80H88.034z M232.034,144.046h-128v-48h128V144.046z"/>
</g>
</svg>
