<?xml version="1.0" encoding="iso-8859-1"?>
<svg version="1.1" id="Capa_1" xmlns="http://www.w3.org/2000/svg" xmlns:xlink="http://www.w3.org/1999/xlink" x="0px" y="0px"
	 viewBox="0 0 480 480" style="enable-background:new 0 0 480 480;" xml:space="preserve">
<g fill="currentColor">
	<path d="M464,264V88H16v176H0v80h48v48h64v-48h256v48h64v-48h48v-80H464z M32,104h416v160h-16v-24c0-22.091-17.909-40-40-40
		h-12.48c2.908-4.832,4.456-10.36,4.48-16c0-17.673-14.327-32-32-32h-64c-17.673,0-32,14.327-32,32
		c0.024,5.64,1.572,11.168,4.48,16h-40.96c2.908-4.832,4.456-10.36,4.48-16c0-17.673-14.327-32-32-32h-64
		c-17.673,0-32,14.327-32,32c0.024,5.64,1.572,11.168,4.48,16H88c-22.091,0-40,17.909-40,40v24H32V104z M392,216
		c13.255,0,24,10.745,24,24v24H64v-24c0-13.255,10.745-24,24-24H392z M112,184c0-8.837,7.163-16,16-16h64c8.837,0,16,7.163,16,16
		s-7.163,16-16,16h-64C119.163,200,112,192.837,112,184z M272,184c0-8.837,7.163-16,16-16h64c8.837,0,16,7.163,16,16
		s-7.163,16-16,16h-64C279.163,200,272,192.837,272,184z M96,376H64v-32h32V376z M416,376h-32v-32h32V376z M464,328H16v-48h448V328
		z"/>
	<rect x="48" y="120" width="16" height="16"/>
	<rect x="416" y="120" width="16" height="16"/>
	<rect x="80" y="120" width="320" height="16"/>
	<rect x="48" y="152" width="16" height="40"/>
	<rect x="416" y="152" width="16" height="40"/>
</g>
</svg>
