<?xml version="1.0" encoding="iso-8859-1"?>
<svg version="1.1" id="Capa_1" xmlns="http://www.w3.org/2000/svg" xmlns:xlink="http://www.w3.org/1999/xlink" x="0px" y="0px"
	 viewBox="0 0 480 480" style="enable-background:new 0 0 480 480;" xml:space="preserve">
<g fill="currentColor">
		<path d="M224,120v112h224V120H224z M432,216H240v-80h192V216z"/>
		<path d="M336,152c-13.255,0-24,10.745-24,24s10.745,24,24,24s24-10.745,24-24S349.255,152,336,152z M336,184c-4.418,0-8-3.582-8-8
			s3.582-8,8-8s8,3.582,8,8S340.418,184,336,184z"/>
		<path d="M176,88V48c0-4.418-3.582-8-8-8h-8V16c0-4.418-3.582-8-8-8H40c-4.418,0-8,3.582-8,8v24h-8c-4.418,0-8,3.582-8,8v40H0v384
			h208V264h208v208h64V88H176z M48,24h96v16H48V24z M32,56h128v32H32V56z M192,456H16V200h176V456z M192,184H16v-80h176V184z
			 M464,456h-32V264h32V456z M464,248H208V104h256V248z"/>
		<rect x="80" y="136" width="48" height="16"/>
		<path d="M152,216c-13.255,0-24,10.745-24,24s10.745,24,24,24s24-10.745,24-24S165.255,216,152,216z M152,248c-4.418,0-8-3.582-8-8
			s3.582-8,8-8s8,3.582,8,8S156.418,248,152,248z"/>
</g>
</svg>
