<?xml version="1.0" encoding="iso-8859-1"?>
<svg version="1.1" id="Capa_1" xmlns="http://www.w3.org/2000/svg" xmlns:xlink="http://www.w3.org/1999/xlink" x="0px" y="0px"
	 viewBox="0 0 480 480" style="enable-background:new 0 0 480 480;" xml:space="preserve">
<g fill="currentColor">
	<path d="M40,432c-13.255,0-24,10.745-24,24s10.745,24,24,24s24-10.745,24-24S53.255,432,40,432z M40,464c-4.418,0-8-3.582-8-8
		s3.582-8,8-8s8,3.582,8,8S44.418,464,40,464z"/>
	<path d="M440,432c-13.255,0-24,10.745-24,24s10.745,24,24,24s24-10.745,24-24S453.255,432,440,432z M440,464c-4.418,0-8-3.582-8-8
		s3.582-8,8-8s8,3.582,8,8S444.418,464,440,464z"/>
	<path d="M416,112v48H64v-48H16v320h48v-48h352v48h48V112H416z M48,416H32V128h16V416z M64,208h24v80H64V208z M64,304h24v32H64V304
		z M416,368H64v-16h352V368z M120,304v32h-16v-32H120z M104,288v-80h16v80H104z M152,304v32h-16v-32H152z M136,288v-80h16v80H136z
		 M184,304v32h-16v-32H184z M168,288v-80h16v80H168z M216,304v32h-16v-32H216z M200,288v-80h16v80H200z M248,304v32h-16v-32H248z
		 M232,288v-80h16v80H232z M280,304v32h-16v-32H280z M264,288v-80h16v80H264z M312,304v32h-16v-32H312z M296,288v-80h16v80H296z
		 M344,304v32h-16v-32H344z M328,288v-80h16v80H328z M376,304v32h-16v-32H376z M360,288v-80h16v80H360z M416,336h-24v-32h24V336z
		 M416,288h-24v-80h24V288z M416,192H64v-16h352V192z M448,416h-16V128h16V416z"/>
	<path d="M296,50.72c-4.509,0.034-8.917,1.337-12.72,3.76c-10.313-7.681-22.495-12.46-35.28-13.84V0h-16v40.64
		c-12.785,1.38-24.967,6.159-35.28,13.84c-3.803-2.423-8.211-3.726-12.72-3.76c-13.255,0-24,10.745-24,24c0,13.255,10.745,24,24,24
		s24-10.745,24-24c-0.015-2.723-0.475-5.425-1.36-8c19.855-14.565,46.865-14.565,66.72,0c-0.885,2.575-1.345,5.277-1.36,8
		c0,13.255,10.745,24,24,24s24-10.745,24-24C320,61.465,309.255,50.72,296,50.72z M184,82.72c-4.418,0-8-3.582-8-8
		c0-4.418,3.582-8,8-8s8,3.582,8,8C192,79.138,188.418,82.72,184,82.72z M296,82.72c-4.418,0-8-3.582-8-8c0-4.418,3.582-8,8-8
		s8,3.582,8,8C304,79.138,300.418,82.72,296,82.72z"/>
</g>
</svg>
