<?xml version="1.0" encoding="iso-8859-1"?>
<svg version="1.1" id="Capa_1" xmlns="http://www.w3.org/2000/svg" xmlns:xlink="http://www.w3.org/1999/xlink" x="0px" y="0px"
	 viewBox="0 0 480.013 480.013" style="enable-background:new 0 0 480.013 480.013;" xml:space="preserve">
<g fill="currentColor">
	<path d="M390.999,316.952l-30.296-24.232c-1.113-0.887-1.969-2.055-2.48-3.384l-11.68-54.4
		c-2.432-11.02-12.179-18.883-23.464-18.928H156.807c-11.268-0.052-21.036,7.788-23.424,18.8l-12,53.952
		c-0.403,1.783-1.399,3.376-2.824,4.52l-29.6,23.68c-5.687,4.552-8.984,11.452-8.952,18.736v80.312
		c0.021,6.788,2.93,13.246,8,17.76v30.24c0,8.837,7.163,16,16,16h32c8.837,0,16-7.163,16-16v-24h176v24c0,8.837,7.163,16,16,16h32
		c8.837,0,16-7.163,16-16v-30.24c5.07-4.514,7.979-10.972,8-17.76v-80.312C400.024,328.4,396.707,321.496,390.999,316.952z
		 M218.143,238.328l0-0.008l4.208-6.32h100.728c3.772-0.001,7.032,2.632,7.824,6.32l10.704,49.688H224.703
		c5.888-11.098,3.871-24.736-4.976-33.656C215.461,250.064,214.799,243.368,218.143,238.328z M184.079,238.328v-0.008l4.208-6.32
		h15.144c-5.88,11.101-3.861,24.736,4.984,33.656c4.258,4.28,4.926,10.962,1.6,16l-4.208,6.32h-15.16
		c5.88-11.101,3.861-24.736-4.984-33.656C181.414,250.037,180.753,243.361,184.079,238.328z M149.039,238.264
		c0.792-3.655,4.028-6.262,7.768-6.256h12.56c-5.88,11.101-3.861,24.736,4.984,33.656c4.258,4.28,4.926,10.962,1.6,16l-4.208,6.32
		h-33.76L149.039,238.264z M136.007,464.008h-32v-24h32V464.008z M376.007,464.008h-32v-24h32V464.008z M384.007,416.008
		c0,4.418-3.582,8-8,8h-272c-4.418,0-8-3.582-8-8v-8h288V416.008z M384.007,392.008h-288v-56.312
		c-0.006-2.431,1.103-4.73,3.008-6.24l29.6-23.68c0.649-0.556,1.269-1.146,1.856-1.768h218.928c0.432,0.4,0.8,0.8,1.296,1.2
		l30.304,24.24c1.9,1.517,3.007,3.816,3.008,6.248V392.008z"/>
	<path d="M132.007,328.008c-15.464,0-28,12.536-28,28c0,15.464,12.536,28,28,28s28-12.536,28-28
		C160.007,340.544,147.471,328.008,132.007,328.008z M132.007,368.008c-6.627,0-12-5.373-12-12c0-6.627,5.373-12,12-12
		c6.627,0,12,5.373,12,12C144.007,362.635,138.634,368.008,132.007,368.008z"/>
	<path d="M348.007,328.008c-15.464,0-28,12.536-28,28c0,15.464,12.536,28,28,28c15.464,0,28-12.536,28-28
		C376.007,340.544,363.471,328.008,348.007,328.008z M348.007,368.008c-6.627,0-12-5.373-12-12c0-6.627,5.373-12,12-12
		c6.627,0,12,5.373,12,12C360.007,362.635,354.634,368.008,348.007,368.008z"/>
	<path d="M288.007,328.008h-96c-8.837,0-16,7.163-16,16v24c0,8.837,7.163,16,16,16h96c8.837,0,16-7.163,16-16v-24
		C304.007,335.171,296.844,328.008,288.007,328.008z M288.007,368.008h-96v-24h96V368.008z"/>
	<path d="M475.871,129l-232-128c-2.405-1.327-5.323-1.327-7.728,0l-232,128c-3.87,2.131-5.281,6.996-3.15,10.866
		c1.407,2.556,4.095,4.144,7.013,4.142h8v336h48v-296h352v296h48v-336h8c4.418,0.003,8.003-3.576,8.006-7.995
		C480.015,133.095,478.427,130.407,475.871,129z M240.007,17.152l200.936,110.856H39.071L240.007,17.152z M448.007,464.008h-16
		v-296h-384v296h-16v-320h416V464.008z"/>
	<path d="M168.007,75.064v44.944h64V43.064L168.007,75.064z M216.007,104.008h-32V84.952l32-16V104.008z"/>
	<path d="M248.007,43.064v76.944h64V75.064L248.007,43.064z M296.007,104.008h-32V68.952l32,16V104.008z"/>
</g>
</svg>
