<?xml version="1.0" encoding="iso-8859-1"?>
<svg version="1.1" id="Capa_1" xmlns="http://www.w3.org/2000/svg" xmlns:xlink="http://www.w3.org/1999/xlink" x="0px" y="0px"
	 viewBox="0 0 512 512" style="enable-background:new 0 0 512 512;" xml:space="preserve">
<g fill="currentColor">
	<path d="M451,317v-30c0-24.813-20.187-45-45-45H226c-5.259,0-10.305,0.915-15,2.58V87.42c17.459-6.192,30-22.865,30-42.42
		c0-24.813-20.187-45-45-45H76c-8.284,0-15,6.716-15,15c0,27.71,0,246.385,0,272c0,19.555,12.541,36.228,30,42.42V377
		c0,27.519,10.855,53.927,30,73.482V497c0,8.284,6.716,15,15,15c17.33,0,254.846,0,270,0c8.284,0,15-6.716,15-15s-6.716-15-15-15
		h-45v-17.991C415.988,435.943,451,379.283,451,317z M226,272h180c8.271,0,15,6.729,15,15v15H211v-15
		C211,278.729,217.729,272,226,272z M91,30h105c8.271,0,15,6.729,15,15s-6.729,15-15,15H91V30z M106,302c-8.271,0-15-6.729-15-15
		V90h90c0,17.39,0,200.271,0,212H106z M339.994,440.773c-5.463,2.387-8.994,7.783-8.994,13.745V482H151v-37.917
		c0-4.267-1.817-8.332-4.996-11.177C130.113,418.684,121,398.307,121,377v-45.1c34.535,0,296.545,0,299.168,0
		C414.864,379.493,384.575,421.295,339.994,440.773z"/>
</g>
</svg>
