<svg xmlns="http://www.w3.org/2000/svg" width="512" height="512" viewBox="0 0 128 128">
    <g>
        <path d="M10.5,44.983a1.873,1.873,0,0,0,.2.011,1.75,1.75,0,0,0,1.737-1.556c.781-6.968,1.25-14.254,1.395-21.655a1.75,1.75,0,0,0-3.5-.068c-.143,7.293-.6,14.472-1.374,21.334A1.75,1.75,0,0,0,10.5,44.983Z"/>
        <path d="M19.344,80.063a1.75,1.75,0,0,0-1.219,2.154,162.693,162.693,0,0,1,5.02,26.982,1.75,1.75,0,0,0,1.739,1.575c.059,0,.118,0,.178-.009a1.75,1.75,0,0,0,1.565-1.916A166.065,166.065,0,0,0,21.5,81.283,1.749,1.749,0,0,0,19.344,80.063Z"/>
        <path d="M117.305,44.994a1.873,1.873,0,0,0,.2-.011,1.75,1.75,0,0,0,1.544-1.934c-.769-6.862-1.231-14.041-1.374-21.334A1.721,1.721,0,0,0,115.889,20a1.749,1.749,0,0,0-1.716,1.783c.145,7.4.614,14.687,1.395,21.655A1.75,1.75,0,0,0,117.305,44.994Z"/>
        <path d="M108.656,80.063a1.754,1.754,0,0,0-2.154,1.22,166.065,166.065,0,0,0-5.129,27.566,1.75,1.75,0,0,0,1.565,1.916c.06.006.119.009.178.009a1.75,1.75,0,0,0,1.739-1.575,162.693,162.693,0,0,1,5.02-26.982A1.75,1.75,0,0,0,108.656,80.063Z"/>
        <path d="M127.984,1.729A1.774,1.774,0,0,0,126.25.083H1.75A1.8,1.8,0,0,0,0,1.833V126.25A1.751,1.751,0,0,0,1.75,128H36.062a1.75,1.75,0,0,0,1.75-1.75,123.322,123.322,0,0,0-12.4-53.711h.657A7.924,7.924,0,0,0,26.8,56.724,78,78,0,0,0,37.532,23.231,105.018,105.018,0,0,0,64,26.508a105.018,105.018,0,0,0,26.468-3.277A78,78,0,0,0,101.2,56.724a7.924,7.924,0,0,0,.726,15.815h.656a123.339,123.339,0,0,0-12.4,53.711,1.751,1.751,0,0,0,1.75,1.75H126.25a1.751,1.751,0,0,0,1.75-1.75V1.833C128,1.8,127.986,1.765,127.984,1.729ZM34.3,124.5H3.5V72.539H7.559C8.887,80.156,9.945,88.166,10.683,96.4A1.75,1.75,0,0,0,12.424,98c.053,0,.105,0,.159-.007a1.751,1.751,0,0,0,1.586-1.9c-.727-8.117-1.765-16.016-3.062-23.55H21.521A119.848,119.848,0,0,1,34.3,124.5ZM30.5,64.613a4.431,4.431,0,0,1-4.426,4.426H3.5V60.188H26.072A4.431,4.431,0,0,1,30.5,64.613ZM22.72,56.688H18.225a105.054,105.054,0,0,0,5.169-18.8,1.75,1.75,0,1,0-3.444-.619,100.791,100.791,0,0,1-5.49,19.424H3.5V5.932c4.7,4.125,14.841,11.627,30.6,16.346A74.507,74.507,0,0,1,22.72,56.688ZM64,23.008c-31.311,0-50.649-13.366-57.8-19.425H121.81C108.412,14,93.484,22.27,64,23.008ZM124.5,124.5H93.7A119.839,119.839,0,0,1,106.48,72.539h10.413c-1.3,7.534-2.335,15.433-3.062,23.55a1.751,1.751,0,0,0,1.586,1.9c.054,0,.106.007.159.007a1.75,1.75,0,0,0,1.741-1.594c.738-8.236,1.8-16.246,3.124-23.863H124.5Zm0-55.461H101.928a4.426,4.426,0,1,1,0-8.851H124.5Zm0-12.351H113.54a100.791,100.791,0,0,1-5.49-19.424,1.75,1.75,0,1,0-3.444.619,105.054,105.054,0,0,0,5.169,18.805h-4.5A74.511,74.511,0,0,1,93.9,22.278c15.76-4.719,25.9-12.221,30.6-16.346Z"/>
    </g>
</svg>
