<svg height="512pt" viewBox="0 -80 512 512" width="512pt" xmlns="http://www.w3.org/2000/svg">
    <g fill="currentColor">
        <path d="m497 0h-482c-8.285156 0-15 6.714844-15 15v321.75c0 8.285156 6.714844 15 15 15h482c8.285156 0 15-6.714844 15-15v-321.75c0-8.285156-6.714844-15-15-15zm-15 321.75h-452v-291.75h452zm0 0"/>
        <path d="m76.59375 235.605469c8.285156 0 15-6.714844 15-15v-29.730469h25.097656v29.730469c0 8.285156 6.714844 15 15 15s15-6.714844 15-15v-89.460938c0-8.285156-6.714844-15-15-15s-15 6.714844-15 15v29.730469h-25.097656v-29.730469c0-8.285156-6.714844-15-15-15s-15 6.714844-15 15v89.460938c0 8.285156 6.714844 15 15 15zm0 0"/>
        <path d="m206.042969 235.605469c23.460937 0 42.550781-19.085938 42.550781-42.550781v-34.359376c0-23.460937-19.089844-42.550781-42.550781-42.550781-23.460938 0-42.550781 19.085938-42.550781 42.550781v34.359376c.003906 23.464843 19.089843 42.550781 42.550781 42.550781zm-12.546875-76.910157c0-6.921874 5.628906-12.550781 12.546875-12.550781 6.921875 0 12.550781 5.628907 12.550781 12.550781v34.359376c0 6.921874-5.628906 12.550781-12.550781 12.550781-6.917969 0-12.546875-5.628907-12.546875-12.550781zm0 0"/>
        <path d="m280.394531 235.605469c8.285157 0 15-6.714844 15-15v-50.1875l1.371094 1.527343c2.84375 3.183594 6.910156 5 11.179687 5 4.269532 0 8.335938-1.816406 11.179688-5l1.371094-1.53125v50.191407c0 8.28125 6.714844 15 15 15 8.28125 0 15-6.71875 15-15v-89.460938c0-6.21875-3.839844-11.792969-9.648438-14.011719-5.8125-2.222656-12.386718-.625-16.535156 4.011719l-16.367188 18.300781-16.367187-18.300781c-4.148437-4.636719-10.722656-6.234375-16.535156-4.011719-5.808594 2.21875-9.648438 7.792969-9.648438 14.011719v89.460938c0 8.285156 6.71875 15 15 15zm0 0"/>
        <path d="m382.296875 235.605469h53.109375c8.285156 0 15-6.714844 15-15 0-8.285157-6.714844-15-15-15h-38.109375v-14.730469h23.082031c8.28125 0 15-6.714844 15-15s-6.71875-15-15-15h-23.082031v-14.730469h38.109375c8.285156 0 15-6.714843 15-15 0-8.285156-6.714844-15-15-15h-53.109375c-8.28125 0-15 6.714844-15 15v89.460938c0 8.285156 6.71875 15 15 15zm0 0"/>
    </g>
</svg>