<svg version="1.1" xmlns="http://www.w3.org/2000/svg" viewBox="0 0 480 480">
    <g>
        <path d="M440,12H40C17.92,12.026,0.026,29.92,0,52v264c0,8.837,7.163,16,16,16h448c8.837,0,16-7.163,16-16V52
		C479.974,29.92,462.08,12.026,440,12z M384,316H96v-48h288V316z M464,316h-64v-56c0-4.418-3.582-8-8-8H88c-4.418,0-8,3.582-8,8
		v56H16V52c0-13.255,10.745-24,24-24h8v256h16V28h352v256h16V28h8c13.255,0,24,10.745,24,24V316z"/>
        <path d="M254.72,356h-16c0.101,5.155-1.764,10.154-5.216,13.984c-10.965,13.628-10.965,33.052,0,46.68
		c6.96,8.036,6.96,19.964,0,28c-5.419,6.559-8.333,14.829-8.224,23.336h16c-0.103-5.16,1.762-10.165,5.216-14
		c10.965-13.628,10.965-33.052,0-46.68c-6.963-8.035-6.963-19.966,0-28C251.912,372.766,254.826,364.502,254.72,356z"/>
        <path d="M158.72,356h-16c0.101,5.155-1.764,10.154-5.216,13.984c-10.965,13.628-10.965,33.052,0,46.68
		c6.96,8.036,6.96,19.964,0,28c-5.419,6.559-8.333,14.829-8.224,23.336h16c-0.103-5.16,1.762-10.165,5.216-14
		c10.965-13.628,10.965-33.052,0-46.68c-6.963-8.035-6.963-19.966,0-28C155.912,372.766,158.826,364.502,158.72,356z"/>
        <path d="M350.72,356h-16c0.101,5.155-1.764,10.154-5.216,13.984c-10.965,13.628-10.965,33.052,0,46.68
		c6.96,8.036,6.96,19.964,0,28c-5.419,6.559-8.333,14.829-8.224,23.336h16c-0.103-5.16,1.762-10.165,5.216-14
		c10.965-13.628,10.965-33.052,0-46.68c-6.963-8.035-6.963-19.966,0-28C347.912,372.766,350.826,364.502,350.72,356z"/>
        <path d="M320,172H160c-13.255,0-24,10.745-24,24s10.745,24,24,24h160c13.255,0,24-10.745,24-24S333.255,172,320,172z M320,204
		H160c-4.418,0-8-3.582-8-8s3.582-8,8-8h160c4.418,0,8,3.582,8,8S324.418,204,320,204z"/>
        <path d="M320,108H160c-13.255,0-24,10.745-24,24s10.745,24,24,24h160c13.255,0,24-10.745,24-24S333.255,108,320,108z M320,140
		H160c-4.418,0-8-3.582-8-8s3.582-8,8-8h160c4.418,0,8,3.582,8,8S324.418,140,320,140z"/>
    </g>
</svg>
