<svg height="512" viewBox="0 0 300 300" width="512" xmlns="http://www.w3.org/2000/svg">
    <g fill="currentColor">
        <path d="m274 244h-44v-20h4c13.234 0 24-10.766 24-24v-28c0-2.209-1.789-4-4-4h-8c-8.343 0-15.698 4.283-20 10.762-4.302-6.479-11.657-10.762-20-10.762h-8c-2.211 0-4 1.791-4 4v28c0 13.234 10.766 24 24 24h4v20h-68v-20h4c13.234 0 24-10.766 24-24v-28c0-2.209-1.789-4-4-4h-8c-8.343 0-15.698 4.283-20 10.762-4.302-6.479-11.657-10.762-20-10.762h-8c-2.211 0-4 1.791-4 4v28c0 13.234 10.766 24 24 24h4v20h-68v-20h4c13.234 0 24-10.766 24-24v-28c0-2.209-1.789-4-4-4h-8c-8.343 0-15.698 4.283-20 10.762-4.302-6.479-11.657-10.762-20-10.762h-8c-2.211 0-4 1.791-4 4v28c0 13.234 10.766 24 24 24h4v20h-44c-2.211 0-4 1.791-4 4 0 15.439 12.562 28 28 28h200c15.438 0 28-12.561 28-28 0-2.209-1.789-4-4-4zm-28-68h4v24c0 8.822-7.176 16-16 16h-4v-24c0-8.822 7.176-16 16-16zm-44 24v-24h4c8.824 0 16 7.178 16 16v24h-4c-8.824 0-16-7.178-16-16zm-32-24h4v24c0 8.822-7.176 16-16 16h-4v-24c0-8.822 7.176-16 16-16zm-44 24v-24h4c8.824 0 16 7.178 16 16v24h-4c-8.824 0-16-7.178-16-16zm-32-24h4v24c0 8.822-7.176 16-16 16h-4v-24c0-8.822 7.176-16 16-16zm-44 24v-24h4c8.824 0 16 7.178 16 16v24h-4c-8.824 0-16-7.178-16-16zm200 68h-200c-9.66 0-17.738-6.883-19.598-16h239.195c-1.859 9.117-9.937 16-19.597 16z"/>
        <path d="m66 44h48v12c0 2.209 1.789 4 4 4v9.535c0 5.77 4.695 10.465 10.465 10.465h17.535v8h-4c-2.211 0-4 1.791-4 4s1.789 4 4 4h16c2.211 0 4-1.791 4-4s-1.789-4-4-4h-4v-8h17.535c5.77 0 10.465-4.695 10.465-10.465v-9.535c2.211 0 4-1.791 4-4v-12h48c2.211 0 4-1.791 4-4v-12c0-2.209-1.789-4-4-4s-4 1.791-4 4v8h-160v-8c0-2.209-1.789-4-4-4s-4 1.791-4 4v12c0 2.209 1.789 4 4 4zm108 25.535c0 1.359-1.105 2.465-2.465 2.465h-43.07c-1.359 0-2.465-1.105-2.465-2.465v-9.535h48zm4-17.535h-56v-8h56z"/>
        <path d="m84.543 109.457c-1.562-1.562-4.094-1.562-5.656 0l-2.828 2.828c-1.562 1.562-1.562 4.094 0 5.656.781.781 1.805 1.172 2.828 1.172s2.047-.391 2.828-1.172l2.828-2.828c1.562-1.562 1.562-4.093 0-5.656z"/>
        <path d="m66 132c1.023 0 2.047-.391 2.828-1.172l1.574-1.574c1.562-1.562 1.562-4.094 0-5.656s-4.094-1.562-5.656 0l-1.574 1.574c-1.562 1.562-1.562 4.094 0 5.656.781.781 1.805 1.172 2.828 1.172z"/>
        <path d="m98.688 100.971c1.562-1.562 1.562-4.094 0-5.656s-4.094-1.562-5.656 0l-2.828 2.828c-1.562 1.562-1.562 4.094 0 5.656.781.781 1.805 1.172 2.828 1.172s2.047-.391 2.828-1.172z"/>
        <path d="m110 89.656 2.828-2.828c1.562-1.562 1.562-4.094 0-5.656s-4.094-1.562-5.656 0l-2.828 2.828c-1.562 1.562-1.562 4.094 0 5.656.781.781 1.805 1.172 2.828 1.172s2.047-.39 2.828-1.172z"/>
        <path d="m107.164 119.744c.656.412 1.391.607 2.113.607 1.336 0 2.637-.666 3.398-1.881l2.117-3.391c1.168-1.875.598-4.342-1.277-5.512-1.871-1.172-4.34-.6-5.512 1.273l-2.117 3.391c-1.167 1.876-.597 4.343 1.278 5.513z"/>
        <path d="m96.559 136.705c.66.412 1.395.607 2.117.607 1.332 0 2.637-.666 3.395-1.879l2.121-3.393c1.172-1.873.602-4.342-1.27-5.514-1.875-1.17-4.344-.602-5.512 1.271l-2.121 3.393c-1.172 1.874-.601 4.343 1.27 5.515z"/>
        <path d="m85.957 153.662c.66.414 1.395.609 2.117.609 1.332 0 2.637-.666 3.395-1.879l2.121-3.391c1.172-1.873.605-4.34-1.27-5.512-1.875-1.178-4.34-.602-5.512 1.27l-2.121 3.391c-1.171 1.873-.605 4.34 1.27 5.512z"/>
        <path d="m118.609 93.879-2.121 3.393c-1.172 1.873-.602 4.342 1.27 5.514.66.412 1.395.607 2.117.607 1.332 0 2.637-.666 3.395-1.879l2.121-3.393c1.172-1.873.602-4.342-1.27-5.514-1.879-1.173-4.344-.597-5.512 1.272z"/>
        <path d="m235.254 123.598c-1.562-1.562-4.094-1.562-5.656 0s-1.562 4.094 0 5.656l1.574 1.574c.781.781 1.805 1.172 2.828 1.172s2.047-.391 2.828-1.172c1.562-1.562 1.562-4.094 0-5.656z"/>
        <path d="m195.656 84-2.828-2.828c-1.562-1.562-4.094-1.562-5.656 0s-1.562 4.094 0 5.656l2.828 2.828c.781.781 1.805 1.172 2.828 1.172s2.047-.391 2.828-1.172c1.563-1.562 1.563-4.094 0-5.656z"/>
        <path d="m209.797 103.799c1.562-1.562 1.562-4.094 0-5.656l-2.828-2.828c-1.562-1.562-4.094-1.562-5.656 0s-1.562 4.094 0 5.656l2.828 2.828c.781.781 1.805 1.172 2.828 1.172s2.047-.391 2.828-1.172z"/>
        <path d="m221.113 119.113c1.023 0 2.047-.391 2.828-1.172 1.562-1.562 1.562-4.094 0-5.656l-2.828-2.828c-1.562-1.562-4.094-1.562-5.656 0s-1.562 4.094 0 5.656l2.828 2.828c.781.782 1.805 1.172 2.828 1.172z"/>
        <path d="m186.484 109.568c-1.875 1.17-2.445 3.637-1.277 5.512l2.117 3.391c.762 1.215 2.062 1.881 3.398 1.881.723 0 1.457-.195 2.113-.607 1.875-1.17 2.445-3.637 1.277-5.512l-2.117-3.391c-1.175-1.873-3.643-2.446-5.511-1.274z"/>
        <path d="m175.879 92.607c-1.871 1.172-2.441 3.641-1.27 5.514l2.121 3.393c.758 1.213 2.062 1.879 3.395 1.879.723 0 1.457-.195 2.117-.607 1.871-1.172 2.441-3.641 1.27-5.514l-2.121-3.393c-1.168-1.869-3.633-2.445-5.512-1.272z"/>
        <path d="m208.531 152.393c.758 1.213 2.062 1.879 3.395 1.879.723 0 1.457-.195 2.117-.609 1.875-1.172 2.441-3.639 1.27-5.512l-2.121-3.391c-1.168-1.871-3.637-2.447-5.512-1.27-1.875 1.172-2.441 3.639-1.27 5.512z"/>
        <path d="m197.93 135.434c.758 1.213 2.062 1.879 3.395 1.879.723 0 1.457-.195 2.117-.607 1.871-1.172 2.441-3.641 1.27-5.514l-2.121-3.393c-1.168-1.873-3.637-2.441-5.512-1.271-1.871 1.172-2.441 3.641-1.27 5.514z"/>
    </g>
</svg>