<svg xmlns="http://www.w3.org/2000/svg" viewBox="0 0 512 512" width="512" height="512">
    <g>
        <path d="M464.536,362.792,424,352.438V328a40.045,40.045,0,0,0-40-40H328a40.068,40.068,0,0,0-39.195,32H269.063L127.23,20.575A8,8,0,0,0,120,16H40a24,24,0,0,0,0,48H98.1L219.358,320H200a40.057,40.057,0,0,0-39.4,33.175A23.995,23.995,0,0,0,160,398.624V440a8,8,0,0,0,8,8h8.581a55.992,55.992,0,0,0,110.838,0h81.162a55.992,55.992,0,0,0,110.838,0H488a8,8,0,0,0,8-8V401.87A40.206,40.206,0,0,0,464.536,362.792ZM328,304h56a24.027,24.027,0,0,1,24,24v20.352l-103.235-26.37A24.041,24.041,0,0,1,328,304ZM110.388,52.575A8,8,0,0,0,103.158,48H40a8,8,0,0,1,0-16h74.938l136.42,288h-14.3ZM168,368H280a8,8,0,0,1,0,16H168a8,8,0,0,1,0-16Zm134.091,17.377L368,398.559V432H352v-8a8,8,0,0,0-16,0v8H320v-8a8,8,0,0,0-16,0v8H287.419a55.882,55.882,0,0,0-16.281-32H280A24.037,24.037,0,0,0,302.091,385.377ZM176,432V400h16.862a55.882,55.882,0,0,0-16.281,32Zm56,48a40,40,0,1,1,40-40A40.045,40.045,0,0,1,232,480Zm192,0a40,40,0,1,1,40-40A40.045,40.045,0,0,1,424,480Zm56-48h-.581A55.954,55.954,0,0,0,384,400.862V392a8,8,0,0,0-6.431-7.845l-74.543-14.908A24.039,24.039,0,0,0,280,352H177.376A24.038,24.038,0,0,1,200,336h94.994l165.727,42.331c.1.026.2.05.3.072A24.122,24.122,0,0,1,480,401.87Z"/>
        <path d="M232,416a24,24,0,1,0,24,24A24.027,24.027,0,0,0,232,416Zm0,32a8,8,0,1,1,8-8A8.009,8.009,0,0,1,232,448Z"/>
        <path d="M424,416a24,24,0,1,0,24,24A24.027,24.027,0,0,0,424,416Zm0,32a8,8,0,1,1,8-8A8.009,8.009,0,0,1,424,448Z"/>
    </g>
</svg>
