<svg id="Capa_1" enable-background="new 0 0 512 512" height="512" viewBox="0 0 512 512" width="512" xmlns="http://www.w3.org/2000/svg"><g><path d="m148.316 215.367c-63.513 0-115.184 51.671-115.184 115.184 0 25.435 8.126 49.548 23.499 69.731 2.51 3.297 7.216 3.932 10.511 1.423 3.295-2.51 3.932-7.216 1.422-10.511-13.366-17.551-20.432-38.521-20.432-60.643 0-55.241 44.942-100.184 100.184-100.184s100.184 44.942 100.184 100.184-44.942 100.184-100.184 100.184c-21.795 0-42.514-6.876-59.918-19.884-3.316-2.48-8.018-1.801-10.497 1.517-2.48 3.317-1.801 8.018 1.517 10.497 20.016 14.962 43.84 22.87 68.898 22.87 63.513 0 115.184-51.671 115.184-115.184s-51.671-115.184-115.184-115.184z"/><path d="m197.233 330.551c0-26.973-21.944-48.917-48.917-48.917s-48.917 21.944-48.917 48.917 21.944 48.917 48.917 48.917 48.917-21.945 48.917-48.917zm-82.834 0c0-18.702 15.215-33.917 33.917-33.917s33.917 15.215 33.917 33.917-15.215 33.917-33.917 33.917-33.917-15.215-33.917-33.917z"/><path d="m504.5 258.349c4.142 0 7.5-3.357 7.5-7.5v-52.833c0-22.405-18.228-40.633-40.633-40.633h-9.066v-17.634c0-8.547-6.953-15.5-15.5-15.5h-50.267c-8.547 0-15.5 6.953-15.5 15.5v17.634h-18.134v-17.634c0-8.547-6.953-15.5-15.5-15.5h-50.267c-8.547 0-15.5 6.953-15.5 15.5v17.634h-150.667v-15.343l271.61-95.062c4.403 5.733 11.321 9.438 19.092 9.438 13.27 0 24.067-10.797 24.067-24.067s-10.797-24.067-24.067-24.067c-13.271 0-24.067 10.796-24.067 24.066 0 .159.009.316.012.473l-272.03 95.21c-2.718-2.35-6.25-3.783-10.117-3.783h-50.267c-8.547 0-15.5 6.953-15.5 15.5v17.634h-9.066c-22.405.001-40.633 18.228-40.633 40.634v265.069c0 22.405 18.228 40.633 40.633 40.633h430.734c22.405 0 40.633-18.228 40.633-40.633v-182.235c0-4.143-3.358-7.5-7.5-7.5s-7.5 3.357-7.5 7.5v182.235c0 14.134-11.499 25.633-25.633 25.633h-174.734v-316.335h58.767 33.134 66.267 16.566c14.134 0 25.633 11.499 25.633 25.633v52.833c0 4.142 3.358 7.5 7.5 7.5zm-82.832-235.067c4.999 0 9.067 4.067 9.067 9.066 0 5-4.067 9.067-9.067 9.067s-9.067-4.067-9.067-9.067c0-4.998 4.067-9.066 9.067-9.066zm-356.969 116.467c0-.275.224-.5.5-.5h50.267c.115 0 .217.046.302.112.005.016.008.032.014.048.051.146.126.277.185.417v17.557h-51.268zm-24.066 348.969c-14.134 0-25.633-11.499-25.633-25.633v-265.069c0-14.134 11.499-25.633 25.633-25.633h16.566 66.267 158.168v316.335zm256-331.335v-17.634c0-.275.224-.5.5-.5h50.267c.276 0 .5.225.5.5v17.634zm99.401 0v-17.634c0-.275.224-.5.5-.5h50.267c.276 0 .5.225.5.5v17.634z"/><path d="m478.868 206.016c0-8.547-6.953-15.5-15.5-15.5h-133.101c-8.547 0-15.5 6.953-15.5 15.5v33.7c0 8.547 6.953 15.5 15.5 15.5h133.101c8.547 0 15.5-6.953 15.5-15.5zm-15 33.7c0 .275-.224.5-.5.5h-133.101c-.276 0-.5-.225-.5-.5v-33.7c0-.275.224-.5.5-.5h133.101c.276 0 .5.225.5.5z"/><path d="m347.117 338.05c17.838 0 32.35-14.513 32.35-32.351s-14.512-32.35-32.35-32.35-32.35 14.512-32.35 32.35 14.512 32.351 32.35 32.351zm0-49.7c9.567 0 17.35 7.783 17.35 17.35s-7.783 17.351-17.35 17.351-17.35-7.783-17.35-17.351c0-9.567 7.783-17.35 17.35-17.35z"/><path d="m446.518 273.35c-17.838 0-32.35 14.512-32.35 32.35s14.512 32.351 32.35 32.351 32.35-14.513 32.35-32.351c0-17.839-14.513-32.35-32.35-32.35zm0 49.7c-9.567 0-17.35-7.783-17.35-17.351 0-9.566 7.783-17.35 17.35-17.35s17.35 7.783 17.35 17.35c0 9.568-7.783 17.351-17.35 17.351z"/><path d="m471.368 356.184h-149.101c-4.142 0-7.5 3.357-7.5 7.5s3.358 7.5 7.5 7.5h149.101c4.142 0 7.5-3.357 7.5-7.5s-3.358-7.5-7.5-7.5z"/><path d="m471.368 389.316h-149.101c-4.142 0-7.5 3.357-7.5 7.5s3.358 7.5 7.5 7.5h149.101c4.142 0 7.5-3.357 7.5-7.5s-3.358-7.5-7.5-7.5z"/><path d="m471.368 422.45h-149.101c-4.142 0-7.5 3.357-7.5 7.5s3.358 7.5 7.5 7.5h149.101c4.142 0 7.5-3.357 7.5-7.5s-3.358-7.5-7.5-7.5z"/></g></svg>