<svg height="512" viewBox="0 0 24 24" width="512" xmlns="http://www.w3.org/2000/svg">
    <g>
        <path d="m18.5 24h-13c-1.379 0-2.5-1.121-2.5-2.5v-19c0-1.379 1.121-2.5 2.5-2.5h13c1.379 0 2.5 1.121 2.5 2.5v19c0 1.379-1.121 2.5-2.5 2.5zm-13-23c-.827 0-1.5.673-1.5 1.5v19c0 .827.673 1.5 1.5 1.5h13c.827 0 1.5-.673 1.5-1.5v-19c0-.827-.673-1.5-1.5-1.5z"/>
        <path d="m12 11.005c-1.508 0-3.017-.163-4.482-.488-.306-.07-.518-.335-.518-.647v-5.74c0-.312.212-.577.516-.646 2.933-.652 6.034-.652 8.967-.001.305.07.517.335.517.647v5.74c0 .312-.212.577-.516.646-.001 0-.001.001-.002.001-1.465.325-2.974.488-4.482.488zm4.374-.977h.01zm-8.374-.43c2.622.543 5.378.543 8 0v-5.196c-2.622-.543-5.378-.543-8 0z"/>
        <path d="m10.5 9c-.276 0-.5-.224-.5-.5v-3c0-.276.224-.5.5-.5s.5.224.5.5v3c0 .276-.224.5-.5.5z"/>
        <path d="m13.5 9c-.276 0-.5-.224-.5-.5v-3c0-.276.224-.5.5-.5s.5.224.5.5v3c0 .276-.224.5-.5.5z"/>
        <path d="m12 11.005c-1.508 0-3.017-.163-4.482-.488-.306-.07-.518-.335-.518-.647v-5.74c0-.312.212-.577.516-.646 2.933-.652 6.034-.652 8.967-.001.305.07.517.335.517.647v5.74c0 .312-.212.577-.516.646-.001 0-.001.001-.002.001-1.465.325-2.974.488-4.482.488zm4.374-.977h.01zm-8.374-.43c2.622.543 5.378.543 8 0v-5.196c-2.622-.543-5.378-.543-8 0z"/>
        <path d="m10.5 9c-.276 0-.5-.224-.5-.5v-3c0-.276.224-.5.5-.5s.5.224.5.5v3c0 .276-.224.5-.5.5z"/>
        <path d="m13.5 9c-.276 0-.5-.224-.5-.5v-3c0-.276.224-.5.5-.5s.5.224.5.5v3c0 .276-.224.5-.5.5z"/>
        <path d="m12 21.005c-1.508 0-3.017-.163-4.482-.488-.306-.07-.518-.335-.518-.647v-5.74c0-.312.212-.577.516-.646 2.933-.653 6.034-.652 8.967-.001.305.07.517.335.517.647v5.74c0 .312-.212.577-.516.646-.001 0-.001.001-.002.001-1.465.325-2.974.488-4.482.488zm4.374-.977h.01zm-8.374-.43c2.622.543 5.378.543 8 0v-5.195c-2.622-.543-5.378-.543-8 0z"/>
        <path d="m10.5 19c-.276 0-.5-.224-.5-.5v-3c0-.276.224-.5.5-.5s.5.224.5.5v3c0 .276-.224.5-.5.5z"/>
        <path d="m13.5 19c-.276 0-.5-.224-.5-.5v-3c0-.276.224-.5.5-.5s.5.224.5.5v3c0 .276-.224.5-.5.5z"/>
        <path d="m12 21.005c-1.508 0-3.017-.163-4.482-.488-.306-.07-.518-.335-.518-.647v-5.74c0-.312.212-.577.516-.646 2.933-.653 6.034-.652 8.967-.001.305.07.517.335.517.647v5.74c0 .312-.212.577-.516.646-.001 0-.001.001-.002.001-1.465.325-2.974.488-4.482.488zm4.374-.977h.01zm-8.374-.43c2.622.543 5.378.543 8 0v-5.195c-2.622-.543-5.378-.543-8 0z"/>
        <path d="m10.5 19c-.276 0-.5-.224-.5-.5v-3c0-.276.224-.5.5-.5s.5.224.5.5v3c0 .276-.224.5-.5.5z"/>
        <path d="m13.5 19c-.276 0-.5-.224-.5-.5v-3c0-.276.224-.5.5-.5s.5.224.5.5v3c0 .276-.224.5-.5.5z"/>
    </g>
</svg>