<svg height="512" viewBox="0 0 511.939 511.939" width="512" xmlns="http://www.w3.org/2000/svg">
    <g fill="currentColor">
        <path d="m338.806 496.939h-11.799l-13.429-26.055c-5.752-11.162-17.13-18.096-29.693-18.096h-55.832c-12.563 0-23.941 6.934-29.693 18.096l-13.429 26.055h-11.799c-9.931.344-9.923 14.66 0 15h80.454c9.931-.344 9.923-14.66 0-15h-51.78l9.887-19.184c3.168-6.148 9.437-9.967 16.359-9.967h55.832c6.923 0 13.191 3.819 16.359 9.968l9.887 19.183h-15.04c-9.931.344-9.923 14.66 0 15h43.717c9.93-.344 9.923-14.659-.001-15z"/>
        <path d="m132.369 60.771h-68.411c-4.143 0-7.5 3.358-7.5 7.5v68.411c.344 9.931 14.66 9.923 15 0v-60.911h60.911c9.931-.344 9.923-14.66 0-15z"/>
        <path d="m447.981 60.771h-68.411c-9.931.344-9.923 14.66 0 15h60.911v60.911c.344 9.931 14.66 9.923 15 0v-68.411c0-4.142-3.357-7.5-7.5-7.5z"/>
        <path d="m447.981 376.712c-4.143 0-7.5 3.358-7.5 7.5v60.911h-60.911c-9.931.344-9.923 14.66 0 15h68.411c4.143 0 7.5-3.358 7.5-7.5v-68.411c0-4.142-3.357-7.5-7.5-7.5z"/>
        <path d="m132.369 445.123h-60.911v-60.911c-.344-9.931-14.66-9.923-15 0v68.411c0 4.142 3.357 7.5 7.5 7.5h68.411c9.931-.344 9.923-14.66 0-15z"/>
        <path d="m312.883 266.672c-.646-.473-1.03-1.284-1.03-2.17v-124.883c0-29.669-25.547-54.715-55.259-54.146-29.32.555-53.174 25.189-53.174 54.916v14.552c0 9.697 15 9.697 15 0v-14.552c0-21.61 17.252-39.517 38.457-39.918 21.633-.427 39.976 17.498 39.976 39.149v124.882c0 5.65 2.68 10.985 7.168 14.272 60.558 45.265 29.46 141.061-46.386 141.657-75.825-.58-106.968-96.441-46.384-141.656 4.489-3.286 7.169-8.622 7.169-14.273v-69.565c0-9.697-15-9.697-15 0v69.565c0 .887-.385 1.698-1.029 2.17-72.252 53.743-34.99 168.13 55.246 168.759 90.244-.637 127.486-115.01 55.246-168.759z"/>
        <path d="m257.637 176.477c-12.722 0-23.072 10.341-23.072 23.052v84.569c-63.12 26.377-45.633 119.084 23.073 120.228 68.714-1.149 86.182-93.864 23.07-120.228v-84.569c0-12.711-10.35-23.052-23.071-23.052zm47.395 165.524c0 26.095-21.262 47.325-47.396 47.325-54.651-1.262-65.351-75.983-13.443-92.709 3.185-.943 5.371-3.869 5.371-7.191v-89.897c.407-10.669 15.741-10.662 16.144 0v89.897c0 3.322 2.186 6.249 5.372 7.192 19.99 5.916 33.952 24.578 33.952 45.383z"/>
        <path d="m222.89 56.938c-2.932 2.927-2.936 7.675-.009 10.606s7.676 2.936 10.606.009c13.318-13.294 34.981-13.293 48.296 0 3.537 2.926 7.072 2.923 10.606-.009 2.927-2.931 2.923-7.68-.009-10.606-19.155-19.127-50.329-19.128-69.49 0z"/>
        <path d="m206.175 36.239c28.376-28.331 74.545-28.332 102.923 0 3.537 2.926 7.072 2.923 10.606-.008 2.927-2.932 2.923-7.68-.009-10.607-34.217-34.165-89.897-34.167-124.118 0-2.932 2.927-2.936 7.675-.009 10.607 2.926 2.93 7.675 2.935 10.607.008z"/>
    </g>
</svg>