<svg id="Capa_1" enable-background="new 0 0 512 512" height="512" viewBox="0 0 512 512" width="512" xmlns="http://www.w3.org/2000/svg"><g><path d="m424.885 350.154v-42.673c0-4.15-3.365-7.515-7.515-7.515s-7.515 3.365-7.515 7.515v42.673c-41.209 3.806-73.589 38.557-73.589 80.743 0 27.235 13.508 51.359 34.16 66.074h-72.376c-19.004 0-36.865-8.387-49.001-23.01-12.138-14.623-17.091-33.723-13.59-52.402l14.193-75.73h79.195c15.193 0 27.554-12.361 27.554-27.554v-99.413c10.162-2.402 20.725-3.675 31.541-3.675 12.083 0 21.914 9.831 21.914 21.914v40.322c0 4.15 3.365 7.515 7.515 7.515s7.515-3.365 7.515-7.515v-40.323c0-15.052-9.053-28.021-21.997-33.773v-39.86c0-4.15-3.365-7.515-7.515-7.515h-.114v-100.989c-.001-30.307-24.657-54.963-54.963-54.963-21.654 0-41.352 12.775-50.185 32.548l-42.72 95.641c-1.693 3.789.007 8.233 3.796 9.926 3.79 1.695 8.233-.007 9.926-3.796l42.72-95.641c6.417-14.366 20.73-23.648 36.462-23.648 22.02 0 39.934 17.914 39.934 39.933v100.99h-15.03v-100.99c0-13.732-11.172-24.904-24.904-24.904-9.811 0-18.736 5.788-22.739 14.748l-171.611 384.195h-16.46l119.366-267.232c1.693-3.789-.007-8.233-3.797-9.926-3.791-1.696-8.233.007-9.926 3.796l-122.103 273.362h-4.052c-9.668 0-17.534 7.866-17.534 17.534v15.706h-25.502c-24.548 0-46.001 16.594-52.171 40.354-.585 2.251-.093 4.646 1.329 6.486 1.423 1.839 3.618 2.917 5.944 2.917h118.178c4.15 0 7.515-3.364 7.515-7.515s-3.365-7.515-7.515-7.515h-107.098c6.776-11.952 19.575-19.699 33.818-19.699h127.41c10.751 0 20.148 7.268 22.85 17.675l.526 2.024h-47.446c-4.15 0-7.515 3.365-7.515 7.515s3.365 7.515 7.515 7.515h57.161c2.326 0 4.521-1.077 5.944-2.917s1.914-4.235 1.329-6.487l-2.968-11.427c-4.422-17.032-19.8-28.927-37.397-28.927h-16.555v-15.706c0-8.636-6.281-15.816-14.511-17.255l168.998-378.344c1.587-3.553 5.127-5.848 9.017-5.848 5.445 0 9.874 4.43 9.874 9.875v100.99h-1.285c-4.15 0-7.515 3.364-7.515 7.515v43.987c-51.977 16.734-92.469 60.79-102.97 116.819l-17.714 94.517c-4.327 23.087 1.796 46.695 16.797 64.769 15.003 18.074 37.078 28.44 60.567 28.44h119.32c44.721 0 81.104-36.383 81.104-81.104 0-42.186-32.38-76.936-73.589-80.742zm-318.417 112.089v-15.706c0-1.381 1.124-2.505 2.505-2.505h50.285c1.381 0 2.505 1.124 2.505 2.505v15.706zm249.933-291.261h31.458v29.176c-10.75.006-21.276 1.146-31.458 3.302zm-15.03 52.354v94.938c0 6.906-5.618 12.524-12.525 12.524h-76.378l.704-3.756c9.153-48.828 43.58-87.565 88.199-103.706zm75.999 273.635c-36.434 0-66.074-29.641-66.074-66.074s29.641-66.074 66.074-66.074 66.074 29.641 66.074 66.074-29.641 66.074-66.074 66.074z"/><path d="m417.37 397.143c-18.612 0-33.753 15.142-33.753 33.753 0 18.612 15.142 33.753 33.753 33.753s33.753-15.142 33.753-33.753-15.142-33.753-33.753-33.753zm0 52.477c-10.324 0-18.724-8.4-18.724-18.724s8.4-18.724 18.724-18.724 18.724 8.4 18.724 18.724c0 10.325-8.4 18.724-18.724 18.724z"/></g></svg>