<svg height="511pt" viewBox="-85 0 511 511.83899" width="511pt" xmlns="http://www.w3.org/2000/svg"><path d="m171.085938 221.707031c37.703124 0 68.265624-30.566406 68.265624-68.269531 0-37.699219-30.5625-68.265625-68.265624-68.265625-37.703126 0-68.265626 30.566406-68.265626 68.265625.042969 37.6875 30.582032 68.226562 68.265626 68.269531zm0-119.46875c28.277343 0 51.199218 22.921875 51.199218 51.199219s-22.921875 51.203125-51.199218 51.203125c-28.277344 0-51.199219-22.925781-51.199219-51.203125.03125-28.261719 22.933593-51.167969 51.199219-51.199219zm0 0"/><path d="m171.078125 161.972656c2.855469.003906 5.523437-1.421875 7.109375-3.800781l17.066406-25.597656c1.722656-2.539063 1.953125-5.804688.601563-8.558594-1.347657-2.753906-4.074219-4.570313-7.136719-4.757813s-5.988281 1.28125-7.664062 3.847657l-17.066407 25.601562c-1.746093 2.617188-1.910156 5.980469-.425781 8.753907 1.480469 2.773437 4.371094 4.507812 7.515625 4.511718zm0 0"/><path d="m213.753906 511.839844h34.132813c9.421875-.011719 17.058593-7.644532 17.066406-17.066406v-22.75c18.714844-2.207032 37.410156-4.851563 56.046875-8.375 12.070312-2.328126 20.78125-12.902344 20.753906-25.195313v-399.359375c.027344-12.292969-8.683594-22.867188-20.75-25.191406-18.101562-3.429688-36.253906-6.011719-54.429687-8.191406-.527344-.164063-1.070313-.273438-1.621094-.324219-.152344 0-.277344.078125-.425781.085937-62.082032-7.296875-124.808594-7.296875-186.890625 0-.144531-.011718-.269531-.085937-.417969-.085937-.539062.050781-1.070312.160156-1.585938.320312-18.1875 2.179688-36.351562 4.761719-54.460937 8.191407-12.070313 2.324218-20.78125 12.902343-20.753906 25.195312v399.359375c-.027344 12.289063 8.683593 22.863281 20.75 25.191406 18.636719 3.527344 37.335937 6.171875 56.050781 8.375v22.753907c.011719 9.421874 7.644531 17.054687 17.066406 17.066406h34.132813c9.421875-.011719 17.058593-7.644532 17.066406-17.066406v-17.613282c8.535156.273438 17.070313.597656 25.601563.597656 8.535156 0 17.066406-.328124 25.601562-.597656v17.613282c.007812 9.421874 7.644531 17.054687 17.066406 17.066406zm34.132813-17.066406h-34.132813v-18.25c11.382813-.609376 22.761719-1.394532 34.132813-2.488282zm-76.800781-477.925782c28.511718.066406 57 1.683594 85.332031 4.847656v131.742188c0 47.128906-38.203125 85.335938-85.332031 85.335938-47.128907 0-85.332032-38.207032-85.332032-85.335938v-131.742188c28.335938-3.164062 56.820313-4.78125 85.332032-4.847656zm-42.667969 477.925782h-34.132813v-20.738282c11.371094 1.09375 22.75 1.878906 34.132813 2.488282zm8.640625-34.878907-.105469-.023437-.085937.015625c-37.773438-1.640625-75.378907-5.988281-112.527344-13.007813-4.011719-.800781-6.886719-4.335937-6.855469-8.425781v-399.359375c-.03125-4.09375 2.847656-7.628906 6.859375-8.425781 14.75-2.789063 29.539062-5.015625 44.34375-6.960938v129.730469c0 56.554688 45.84375 102.402344 102.398438 102.402344 56.554687 0 102.398437-45.847656 102.398437-102.402344v-129.734375c14.804687 1.949219 29.597656 4.171875 44.347656 6.960937 4.011719.800782 6.890625 4.335938 6.855469 8.429688v399.359375c.03125 4.089844-2.84375 7.625-6.855469 8.425781h-.003906c-37.148437 7.019532-74.753906 11.367188-112.523437 13.011719l-.085938-.019531-.105469.019531c-22.679687.988281-45.363281.988281-68.054687.003906zm0 0"/><path d="m230.820312 332.640625v-34.136719c-.011718-9.421875-7.644531-17.054687-17.066406-17.066406h-85.335937c-9.421875.011719-17.054688 7.644531-17.066407 17.066406v34.136719c.011719 9.421875 7.644532 17.054687 17.066407 17.066406h85.335937c9.421875-.011719 17.054688-7.644531 17.066406-17.066406zm-102.402343-34.136719h85.335937l.011719 34.136719h-85.347656zm0 0"/><path d="m43.085938 264.371094c-4.710938 0-8.53125 3.820312-8.53125 8.535156v8.53125c0 4.714844 3.820312 8.535156 8.53125 8.535156 4.714843 0 8.535156-3.820312 8.535156-8.535156v-8.53125c0-4.714844-3.820313-8.535156-8.535156-8.535156zm0 0"/><path d="m43.085938 307.039062c-4.710938 0-8.53125 3.820313-8.53125 8.535157v102.398437c0 4.710938 3.820312 8.53125 8.53125 8.53125 4.714843 0 8.535156-3.820312 8.535156-8.53125v-102.398437c0-4.714844-3.820313-8.535157-8.535156-8.535157zm0 0"/><path d="m119.886719 366.773438h-17.066407c-4.714843 0-8.535156 3.820312-8.535156 8.53125 0 4.714843 3.820313 8.535156 8.535156 8.535156h17.066407c4.710937 0 8.53125-3.820313 8.53125-8.535156 0-4.710938-3.820313-8.53125-8.53125-8.53125zm0 0"/><path d="m119.886719 400.90625h-17.066407c-4.714843 0-8.535156 3.820312-8.535156 8.53125 0 4.714844 3.820313 8.535156 8.535156 8.535156h17.066407c4.710937 0 8.53125-3.820312 8.53125-8.535156 0-4.710938-3.820313-8.53125-8.53125-8.53125zm0 0"/><path d="m213.753906 375.304688c0 4.714843 3.820313 8.535156 8.53125 8.535156h17.066406c4.714844 0 8.535157-3.820313 8.535157-8.535156 0-4.710938-3.820313-8.53125-8.535157-8.53125h-17.066406c-4.710937 0-8.53125 3.820312-8.53125 8.53125zm0 0"/><path d="m239.351562 400.90625h-17.066406c-4.710937 0-8.53125 3.820312-8.53125 8.53125 0 4.714844 3.820313 8.535156 8.53125 8.535156h17.066406c4.714844 0 8.535157-3.820312 8.535157-8.535156 0-4.710938-3.820313-8.53125-8.535157-8.53125zm0 0"/></svg>