<svg enable-background="new 0 0 512 512" height="512" viewBox="0 0 512 512" width="512"
     xmlns="http://www.w3.org/2000/svg">
    <g fill="currentColor">
        <path d="m436 212h-135v-50h65c4.929 0 9.543-2.421 12.343-6.477 2.801-4.056 3.431-9.228 1.685-13.837l-50-132c-2.209-5.83-7.794-9.686-14.028-9.686h-120c-6.234 0-11.819 3.856-14.027 9.687l-50 132c-1.746 4.609-1.116 9.781 1.685 13.837 2.8 4.056 7.414 6.477 12.343 6.477h65v50h-135.001c-8.284 0-15 6.716-15 15s6.716 15 15 15h5v225c0 8.284 6.716 15 15 15h15v15c0 8.284 6.716 15 15 15s15-6.716 15-15v-15h230v15c0 8.284 6.716 15 15 15s15-6.716 15-15v-15h15c8.284 0 15-6.716 15-15v-225.001h5c8.284 0 15-6.716 15-15s-6.716-15-15-15zm-186.775-182h13.55l12.879 102h-39.308zm95.053 102h-38.386l-12.879-102h12.628zm-137.92-102h12.629l-12.879 102h-38.386zm34.642 132h30v50h-30zm160 290h-290v-90h290zm0-120h-290v-90h290z"/>
        <path d="m226 272c-8.284 0-15 6.716-15 15s6.716 15 15 15h60c8.284 0 15-6.716 15-15s-6.716-15-15-15z"/>
        <path d="m226 422h60c8.284 0 15-6.716 15-15s-6.716-15-15-15h-60c-8.284 0-15 6.716-15 15s6.716 15 15 15z"/>
    </g>
</svg>